<svg xmlns="http://www.w3.org/2000/svg" xmlns:xlink="http://www.w3.org/1999/xlink" width="30" height="24" viewBox="0 0 30 24"><defs><path id="c2eua" d="M89.45 5072.72v-5.42l4.2 2.7zm5.44-3.16l-5.69-3.65a.52.52 0 0 0-.79.44v7.3a.52.52 0 0 0 .52.53c.1 0 .2-.03.27-.08l5.7-3.66a.52.52 0 0 0 0-.88z"/><path id="c2eub" d="M104.97 5080.96h-4.14v-4.7h4.14zm-27.94 0v-4.7h4.14v4.7zm0-21.92h4.14v4.7h-4.14zm27.94 0v4.7h-4.14v-4.7zm-4.14 11.48h4.14v4.7h-4.14zm4.14-1.04h-4.14v-4.7h4.14zm-22.76-10.44h17.57v21.93H82.21zm-5.18 11.48h4.14v4.7h-4.14zm4.14-1.04h-4.14v-4.7h4.14zm24.31-11.48H76.52a.52.52 0 0 0-.52.52v22.96c0 .29.23.52.52.52h28.96c.29 0 .52-.23.52-.52v-22.96a.52.52 0 0 0-.52-.52z"/></defs><g><g transform="translate(-76 -5058)"><g><use fill="#fff" xlink:href="#c2eua"/></g><g><use fill="#fff" xlink:href="#c2eub"/></g></g></g></svg>