<svg xmlns="http://www.w3.org/2000/svg" xmlns:xlink="http://www.w3.org/1999/xlink" width="16" height="16" viewBox="0 0 16 16"><defs><path id="uruca" d="M1122.68 21a2.67 2.67 0 1 1-5.35 0 2.67 2.67 0 0 1 5.35 0zm-2.68-4.1a4.1 4.1 0 1 0 0 8.2 4.1 4.1 0 0 0 0-8.2zm4.27-1.13a.96.96 0 1 0 0 1.92.96.96 0 0 0 0-1.92zm-4.99-1.33h.72c2.14 0 2.39 0 3.23.05.78.03 1.2.16 1.49.27.37.15.64.32.92.6.28.28.45.55.6.92.1.28.24.7.27 1.49.04.84.05 1.1.05 3.23s0 2.39-.05 3.23c-.03.78-.16 1.2-.27 1.48-.15.38-.32.64-.6.92-.28.28-.55.46-.92.6-.28.11-.7.24-1.49.28-.84.04-1.1.04-3.23.04-2.14 0-2.39 0-3.23-.04a4.44 4.44 0 0 1-1.49-.28 2.48 2.48 0 0 1-.92-.6 2.48 2.48 0 0 1-.6-.92c-.1-.28-.24-.7-.27-1.48-.04-.84-.05-1.1-.05-3.23 0-2.14.01-2.4.05-3.24.03-.78.16-1.2.27-1.48.15-.37.32-.64.6-.92.28-.28.55-.45.92-.6.28-.1.7-.24 1.49-.28a44.4 44.4 0 0 1 2.51-.04zM1120 13zm-3.3.05c-.85.04-1.43.17-1.94.37-.53.2-.97.48-1.42.92-.44.45-.72.9-.92 1.42-.2.5-.33 1.09-.37 1.94-.04.85-.05 1.13-.05 3.3s.01 2.44.05 3.3c.04.85.17 1.43.37 1.94.2.53.48.97.92 1.42.45.44.9.72 1.42.92.5.2 1.09.33 1.94.37.85.04 1.13.05 3.3.05s2.44 0 3.3-.05a5.88 5.88 0 0 0 1.94-.37c.53-.2.97-.48 1.42-.92.44-.45.71-.9.92-1.42.2-.5.33-1.1.37-1.94.04-.86.05-1.13.05-3.3s-.01-2.45-.05-3.3a5.93 5.93 0 0 0-.37-1.94c-.2-.53-.48-.97-.92-1.42a3.91 3.91 0 0 0-1.42-.92c-.51-.2-1.1-.33-1.94-.37-.86-.04-1.13-.05-3.3-.05s-2.44.01-3.3.05z"/></defs><g><g transform="translate(-1112 -13)"><use fill="#222" xlink:href="#uruca"/></g></g></svg>