<svg xmlns="http://www.w3.org/2000/svg" xmlns:xlink="http://www.w3.org/1999/xlink" width="20" height="20" viewBox="0 0 20 20"><defs><path id="pdwma" d="M1005 604a10 10 0 1 1 20 0 10 10 0 0 1-20 0z"/><path id="pdwmc" d="M1016.77 604a1.78 1.78 0 1 1-3.55 0 1.78 1.78 0 0 1 3.55 0zm-1.77-2.74a2.74 2.74 0 1 0 0 5.48 2.74 2.74 0 0 0 0-5.48zm2.85-.75a.64.64 0 1 0 0 1.3.64.64 0 0 0 0-1.3zm-3.32-.88h.48c1.42 0 1.6 0 2.16.03.52.02.8.11.99.18.25.1.43.22.61.4.19.19.3.37.4.62.07.18.16.47.19.99.02.56.03.73.03 2.15 0 1.43 0 1.6-.03 2.16-.03.52-.12.8-.19.99-.1.25-.21.42-.4.61-.18.19-.36.3-.61.4-.19.07-.47.16-1 .18-.56.03-.73.03-2.15.03-1.43 0-1.6 0-2.16-.03-.52-.02-.8-.1-1-.18-.24-.1-.42-.21-.6-.4-.2-.19-.3-.36-.4-.61a2.94 2.94 0 0 1-.19-1c-.02-.56-.03-.72-.03-2.15 0-1.42 0-1.6.03-2.15.03-.52.11-.8.19-1 .1-.24.2-.42.4-.6.18-.2.36-.31.6-.4.2-.08.48-.17 1-.2.5-.01.68-.02 1.68-.02zm.47-.96c-1.44 0-1.63 0-2.2.03-.56.03-.95.12-1.29.25-.35.14-.65.32-.94.62-.3.3-.48.59-.62.94a3.9 3.9 0 0 0-.25 1.3c-.02.56-.03.74-.03 2.2 0 1.44 0 1.62.03 2.2.03.56.12.95.25 1.29.14.35.32.64.62.94.3.3.59.48.94.62.34.13.73.22 1.3.24.56.03.74.04 2.2.04 1.44 0 1.62-.01 2.2-.04.56-.02.95-.11 1.29-.24.35-.14.64-.32.94-.62.3-.3.48-.6.62-.94.13-.34.22-.73.24-1.3.03-.57.04-.75.04-2.2 0-1.45-.01-1.63-.04-2.2a3.95 3.95 0 0 0-.24-1.29 2.62 2.62 0 0 0-.62-.94c-.3-.3-.6-.48-.94-.62a3.93 3.93 0 0 0-1.3-.25c-.57-.02-.75-.03-2.2-.03z"/><clipPath id="pdwmb"><use fill="#fff" xlink:href="#pdwma"/></clipPath></defs><g><g transform="translate(-1005 -594)"><g opacity=".5"><use fill="#fff" fill-opacity="0" stroke="#000" stroke-miterlimit="50" stroke-width="2" clip-path="url(&quot;#pdwmb&quot;)" xlink:href="#pdwma"/></g><g opacity=".5"><use xlink:href="#pdwmc"/></g></g></g></svg>