<svg xmlns="http://www.w3.org/2000/svg" xmlns:xlink="http://www.w3.org/1999/xlink" width="113" height="111" viewBox="0 0 113 111"><defs><path id="u3c2a" d="M151.44 98.47c.03-.72-.15-1.44-.18-2.16-.06-1.5-.39-2.97-.75-4.44-.12-.45-.18-.93-.33-1.38-.24-.72-.54-1.4-.75-2.1-.33-1.1-.8-2.16-1.32-3.18a39.92 39.92 0 0 0-2.04-3.69c-.3-.48-.65-.96-.92-1.5-.12-.27-.36-.24-.51.03-.42.81-.84 1.62-1.23 2.46-.6 1.3-1.08 2.61-1.56 3.93a36.83 36.83 0 0 0-1.38 4.71 26.33 26.33 0 0 0-.72 5.31c0 .42-.03.81-.06 1.23-.09 1.2.03 2.4.51 3.51a7.32 7.32 0 0 0 3.57 3.9c.99.48 2.04.66 3.05.4a5.58 5.58 0 0 0 3.21-2.29c1.05-1.4 1.35-3.03 1.41-4.74zm-12.77 7.56c-.03-.03-.03-.09-.03-.12-.06-.33-.12-.66-.54-.75 0-.06-.03-.09-.03-.15 0-.15 0-.27-.09-.39-.36-.5-.54-1.08-.75-1.68-.09-.24-.06-.5-.36-.66-.06-.09-.06-.18-.06-.3.21-.39.03-.72-.24-.99a.82.82 0 0 1-.03-.6c.18-.57.12-1.14.03-1.68-.09-.45-.06-.9 0-1.35.12-.75.15-1.5-.03-2.25-.03-.24-.06-.48.06-.72.24-.54.45-1.1.24-1.7a.86.86 0 0 1 .1-.6.38.38 0 0 0 .2-.28c.27-.72.45-1.47.36-2.22-.03-.09-.03-.18.03-.24.21 0 .27-.15.27-.33 0-.24.03-.48.15-.69.18-.27.15-.57.12-.9l.03-.27c.45-.18.27-.69.42-1.02.21-.48.54-.96.42-1.53-.06-.42.24-.78.4-1.14a48.46 48.46 0 0 1 3.05-6.27c.18-.33.15-.5-.1-.78a48.33 48.33 0 0 0-6.47-6.15 40.66 40.66 0 0 0-8.36-5.07c-1.38-.6-2.76-1.2-4.17-1.74-.38-.15-.44-.12-.44.33-.03.6 0 1.2 0 1.8v37.3c0 1.43.56 2.51 1.91 3.14.24.12.45.15.7.15.35 0 .44.21.5.48.03.1 0 .18 0 .3.03.96.03.96-.93.96h-10.27c-.28.03-.37-.12-.4-.39-.12-1.23-.06-1.29 1.14-1.32h1.08c1.7.03 2.97-1.59 2.94-2.97v-.72-39.45c0-1.1.03-2.22-.06-3.3a5.05 5.05 0 0 0-2.07-4.08 6.95 6.95 0 0 0-2.58-1.08c-.36-.09-.48-.2-.45-.57.03-.2 0-.42 0-.66.03-.45.21-.66.63-.54.9.24 1.8.12 2.7.27 1.1.18 2.19.36 3.3.6.69.15 1.35.4 2.04.63l3.14 1.11c1.3.42 2.49 1.05 3.72 1.62 1.68.81 3.24 1.8 4.82 2.76 1.71 1.05 3.3 2.25 4.83 3.51a51.97 51.97 0 0 1 7.04 6.9c.21.27.33.24.54-.03.75-.9 1.53-1.8 2.31-2.67 2.28-2.52 4.8-4.8 7.5-6.84a45.89 45.89 0 0 1 5.21-3.42 35.5 35.5 0 0 1 5.43-2.49c1.28-.45 2.57-.93 3.92-1.23.72-.18 1.41-.39 2.13-.5.72-.13.72-.07.72.62v53.7c0 .3-.09.48-.48.48h-7.85c-.42 0-.54-.12-.54-.57-.03-.5 0-1.02 0-1.5V60.64v-.5c.06-.6-.33-.6-.7-.43a64.5 64.5 0 0 0-4.94 3.06 51.82 51.82 0 0 0-10.1 9.57c-.09.12-.2.21-.27.3-.48.57-.48.75-.03 1.35a45.38 45.38 0 0 1 4.32 7.6c.5 1.1.9 2.3 1.35 3.44.48 1.2.69 2.46 1.14 3.66.15.45.2.93.27 1.41.12.78.33 1.53.42 2.31.23 1.9.26 3.78.3 5.67.02 1.14-.07 2.25-.36 3.33-.93 3.18-2.61 5.8-5.55 7.47a8.39 8.39 0 0 1-3.87 1.23c-.33 0-.66.24-.99.15-.8-.2-1.61-.18-2.45-.42a10.1 10.1 0 0 1-3.6-1.89 6.18 6.18 0 0 1-1.5-1.56c.03-.18 0-.33-.24-.36z"/><path id="u3c2b" d="M133.05 122.05v-.87c0-1.47.06-1.08-1.24-1.14-.36-.03-.54.15-.57.51a8.61 8.61 0 0 1-.64 3c-.09.24 0 .36.28.36h1.72c.3 0 .42-.12.42-.42.03-.48.03-.96.03-1.44zm1.42-.57v1.86c0 .33.03.57.45.54.3-.03.42.18.42.48 0 .54.03 1.05 0 1.59-.03.39-.18.48-.72.48-.42 0-.57-.18-.57-.57 0-.24.21-.54-.06-.75-.2-.18-.5-.09-.77-.09h-3.4c-.32 0-.5.09-.44.45v.3c-.03.57-.4.81-.96.63-.21-.06-.24-.21-.24-.39v-1.74c0-.15.03-.36.24-.36.96 0 1.1-.75 1.2-1.38.15-.93.36-1.83.36-2.76 0-.63.12-.69.75-.69h3.09c.56 0 .6.03.6.6.05.6.05 1.2.05 1.8z"/><path id="u3c2c" d="M157.64 123.91h2.12c.51 0 .54-.06.54-.6v-2.52c0-.72-.03-.75-.77-.75h-.63c-.24 0-.4.12-.36.33.03.51-.24.99-.24 1.47-.06.72-.3 1.32-.66 2.07zm1.89-4.86h1.29c.83 0 .86 0 .86.81v3.3c0 .36-.06.75.51.72.18 0 .21.18.21.33v1.86c0 .3-.2.33-.45.33-.27-.03-.63.06-.69-.33-.06-.24-.03-.48-.03-.72s-.09-.36-.32-.36H157c-.24 0-.33.12-.33.36v.36c-.03.63-.45.9-1.02.63-.15-.06-.21-.21-.21-.36v-1.8c0-.21.12-.36.36-.33.48.06.69-.3.84-.63.15-.33.27-.69.27-1.05.03-.9.33-1.8.36-2.7.03-.33.15-.48.48-.48.6.06 1.17.06 1.77.06z"/><path id="u3c2d" d="M138.88 132.85c1.05-.99 1.83-2.25 2.87-3.21.24.15.21.36.21.54v4.89c0 .24.03.48-.24.63-.24.12-.83.06-1.01-.09-.18-.12-.15-.27-.15-.45v-1.5c0-.15.06-.33-.18-.45-.42.33-.75.72-1.08 1.14-.3.39-.42.39-.78.03-.4-.42-.75-.84-1.14-1.26-.24.09-.18.27-.21.45v1.65c0 .48-.12.57-.78.57-.45 0-.6-.15-.6-.57v-5.04-.15c0-.15 0-.3.21-.33.15-.03.21.06.3.15l2.46 2.91s.06.03.12.09z"/><path id="u3c2e" d="M176.4 38.32c-.6.54-.9 1.17-1.35 1.68-.42.48-.39.51-.84.12-.09-.09-.18-.18-.27-.24-.3-.18-.24-.42-.09-.6 1.05-1.35 2.13-2.7 3.15-4.05.1-.09.15-.27.27-.24.15.06.21.21.24.4.03.65.1 1.34.12 2l.06 1.44c.03.36.18.54.51.4.63-.3 1.38-.19 2-.46.49-.2 1.06-.03 1.5-.36.1-.06.25-.03.34.1.09.14.03.26-.06.38-.4.45-.75.93-1.11 1.41-.66.9-1.41 1.77-2.04 2.7-.24.33-.45.36-.78.1l-.33-.28c-.33-.2-.3-.33-.06-.66.36-.45.69-.9 1.02-1.35.09-.09.15-.18.09-.3-.06-.09-.15-.09-.27-.06-.36.06-.75.1-1.1.21-.64.24-.82.1-.9-.57-.04-.57.02-1.1-.1-1.77z"/><path id="u3c2f" d="M161.58 132.68c0-.15-.03-.3-.03-.42-.03-1.03-1.5-2.02-2.65-1.2-.84.6-.93 1.4-.72 2.3.24 1.06 1.53 1.57 2.4 1.12.79-.36 1-1 1-1.8zm1.4 0c.11 1.67-1.38 3.08-3.06 3.11-1.98.03-3.27-1.26-3.3-3.03-.03-1.83 1.4-3.12 3.15-3.18 1.7-.06 3.35 1.41 3.2 3.1z"/><path id="u3c2g" d="M147.48 28.66c.4-.2.63-.5.93-.75.84-.75 1.71-1.47 2.58-2.22.15-.15.3-.27.48-.18.2.1.12.3.12.45-.12 1.65-.3 3.3-.3 4.95 0 .51-.1.54-.63.54-.12 0-.24-.03-.36 0-.36.03-.48-.15-.45-.48l.09-2c0-.19.03-.34.03-.52a.27.27 0 0 0-.12-.24c-.12-.06-.21 0-.3.1-.93.8-1.83 1.61-2.76 2.42-.15.12-.27.27-.42.36-.27.18-.45.1-.42-.27l.1-2.52.17-2.52c.06-.63.12-.66.78-.6.57.06.7.18.63.72-.09.78-.18 1.56-.18 2.37-.03.12 0 .21.03.4z"/><path id="u3c2h" d="M168.76 33.37c-.18-.15-.36-.12-.51-.06-1.2.54-2.5.84-3.69 1.38-.06.03-.15.03-.21.06-.33.03-.42-.1-.3-.42.24-.57.51-1.14.78-1.68.48-1 .84-2.04 1.4-3 .22-.4.37-.45.73-.27.09.03.15.12.24.15.45.27.48.36.27.84l-.75 1.53c-.1.24-.33.5-.1.72.22.18.52.03.76-.06 1.05-.45 2.13-.78 3.2-1.14.06-.03.12 0 .15-.03.15-.18.33-.33.54-.15.15.15-.03.39-.09.57-.71 1.59-1.43 3.15-2.15 4.7-.03.07-.06.16-.12.19-.4.15-.63-.24-.96-.33-.15-.03-.3-.21-.18-.45l.9-1.98c0-.18.06-.4.09-.57z"/><path id="u3c2i" d="M192.68 99.43c0-.1.03-.21.06-.36.18-.54.3-.63.87-.42.57.2 1.2.3 1.74.6.03.03.09.03.15.03.15.03.36.12.48-.03s.03-.33-.03-.48c-.51-1.08-1.02-2.13-1.56-3.18l-.12-.18c-.06-.21-.24-.42-.03-.6.15-.12.36-.03.54.03 1.17.42 2.37.8 3.57 1.17.42.12.87.18 1.23.45.2.15.3.24.17.5-.35.85-.32.82-1.22.55-.63-.18-1.3-.36-1.9-.63-.11-.06-.23-.1-.32.03-.1.12-.03.24.03.33l.96 1.95c.33.63.63 1.26.96 1.86.09.15.12.33 0 .48-.12.15-.27.03-.4-.03a64.3 64.3 0 0 0-2.21-.75c-.93-.3-1.83-.63-2.76-.9-.24-.06-.2-.21-.2-.42z"/><path id="u3c2j" d="M92.87 85.93c-.09-.27-.39-.36-.57-.57-.8-.84-1.7-1.53-2.55-2.34-.12-.12-.2-.24-.39-.3-.15-.03-.27-.15-.24-.3.03-.21.24-.18.4-.21h.14c1.62-.06 3.24 0 4.86-.27.69-.12.72-.06.75.66v.2c0 .55 0 .55-.54.58-.51.03-1.02.03-1.5.03-.2 0-.42.03-.63.09-.42.12-.45.24-.15.54a88.9 88.9 0 0 0 2.9 2.64c.16.12.25.27.22.42-.06.2-.27.15-.42.18-1.59.09-3.15.33-4.74.3-.27 0-.6.12-.75-.15-.18-.3-.15-.7-.06-1.05.06-.24.3-.27.54-.27l2.22-.1c.18.04.36.1.51-.08z"/><path id="u3c2k" d="M157.52 29.59c-.75.24-1.37.75-2.03 1.17-.51.33-1.05.6-1.53.96-.1.06-.27.24-.45.06-.15-.15-.1-.3-.06-.48.42-1.41.63-2.88.93-4.32.03-.18.18-.36.18-.54 0-.42.24-.45.57-.42.78.06.8.12.72.9-.06.66-.36 1.29-.4 1.98 0 .15-.08.3.07.39.15.12.33 0 .45-.1l3.23-2.06c.12-.1.21-.21.36-.18s.3.06.24.27c-.27.93-.36 1.92-.63 2.85-.18.66-.27 1.35-.42 2.04-.03.15-.03.33-.12.48-.15.3-.36.24-.66.15-.75-.24-.84-.33-.6-1.05.21-.63.21-1.26.33-1.9.12-.11.18-.23.03-.35-.09-.12-.18 0-.2.15z"/><path id="u3c2l" d="M188.96 113c.18-.25.12-.46.1-.64-.28-1.2-.49-2.43-.64-3.66a.8.8 0 0 0-.09-.36c-.03-.12-.15-.27.03-.36.12-.06.24-.09.4.03a85.2 85.2 0 0 0 4.3 3c.25.15.3.36.1.6-.1.1-.12.18-.21.3-.3.45-.45.51-.87.15-.6-.48-1.29-.84-1.86-1.35-.09-.09-.18-.06-.27-.03-.09.03-.12.15-.09.24.18.6.1 1.23.27 1.83.24.78.3 1.65.42 2.46.03.15 0 .3-.09.42-.24.03-.36-.15-.54-.27l-3.8-2.6c-.1-.07-.19-.19-.28-.22-.32-.15-.32-.36-.12-.63.06-.09.1-.18.15-.24.42-.54.33-.6.96-.15l2.13 1.47z"/><path id="u3c2m" d="M198.83 80.59c-.18 0-.33.03-.5.03a1.7 1.7 0 0 0-1.36 2.34c.5 1.2 1.77 1.56 2.95.9.48-.27.8-.72.84-1.32.03-1.14-.75-1.95-1.93-1.95zm3.08 1.77c-.02 1.83-1.31 3.18-3.02 3.18-2.01 0-3.15-1.44-3.18-3.21a3.1 3.1 0 0 1 3.09-3.21c1.53-.03 3.17 1.5 3.11 3.24z"/><path id="u3c2n" d="M167.17 130.81h.62c.33.03.5.24.56.54.06.33-.06.54-.41.63-.15.03-.3.12-.45.15-.68.12-.92-.06-.89-.78 0-.54 0-.54.57-.54zm-.09 3.84c-.36 0-.48-.15-.48-.48 0-1.2-.12-1.14 1.02-1.08h.2c.6.06.84.27.84.75s-.35.78-.9.81h-.35c-.12 0-.24-.03-.33 0zm-1.86-1.95c0 .78 0 1.56-.03 2.34.03.51.18.66.69.66h1.86c.48 0 .99-.06 1.38-.3.99-.6 1.2-1.8.33-2.64-.21-.21-.33-.39-.12-.72.72-1.08-.06-2.25-1.11-2.25l-2.37-.03c-.54 0-.63.09-.63.63v2.31z"/><path id="u3c2o" d="M101.02 111.13c.2.27.45.36.75.4.9.05 1.77.35 2.66.53.36.06.72.12 1.08.12.18 0 .33.06.36.27.03.15-.06.24-.2.33a58.42 58.42 0 0 0-4.2 2.94c-.24.18-.48.15-.66-.12-.1-.12-.18-.27-.27-.42-.24-.39-.21-.39.18-.66.72-.5 1.47-.96 2.19-1.62-1.65-.54-3.33-.63-4.98-1.1.18-.28.39-.43.63-.6 1.23-.85 2.46-1.72 3.66-2.59.57-.42.63-.45 1.05.12.12.18.24.36.35.57-.8.7-1.7 1.23-2.6 1.83z"/><path id="u3c2p" d="M129.28 27.58c.24.03.36.18.4.36.32 1.23.83 2.37 1.2 3.57.14.42.3.84.44 1.29.1.27.03.36-.2.48-1 .45-1.06.48-1.36-.57-.3-.99-.75-1.95-.99-2.97-.03-.15-.15-.3-.2-.45-.06-.15-.18-.21-.33-.15-.48.18-.96.39-1.47.54-.3.09-.3.27-.24.51.18.6.36 1.17.6 1.77.24.66.5 1.29.75 1.92.09.27.18.57-.3.63-.18.03-.3.24-.51.24-.3.03-.54-.03-.63-.36-.42-1.59-1.05-3.09-1.53-4.65-.15-.51-.15-.57.33-.72 1.2-.42 2.4-.87 3.62-1.2.18-.03.24-.21.42-.24z"/><path id="u3c2q" d="M200.71 69.76c-.66.06-1.17.39-1.76.42-.4.03-.78.2-1.17.33-.84.24-1.71.36-2.52.69-.3.12-.45.03-.54-.27-.27-.93-.3-.96.66-1.23.63-.18 1.26-.45 1.95-.48.12 0 .24-.03.27-.18.03-.12-.06-.24-.15-.3-.4-.18-.72-.45-1.11-.66-.9-.45-1.68-1.11-2.61-1.53-.21-.1-.21-.21-.21-.4.03-.2.15-.2.3-.23.69-.1 1.35-.33 2-.51.52-.15 1.06-.33 1.6-.36.45-.03.78-.4 1.23-.36.2 0 .45-.12.56.15.15.3.33.6.27.96-.03.15-.15.15-.27.18-.65.24-1.34.42-2.03.57-.15.03-.33.03-.48.15-.24.18-.24.27.03.42 1.2.69 2.37 1.4 3.56 2.1.24.15.36.27.42.54z"/><path id="u3c2r" d="M100.03 102.73c.03.27-.09.33-.27.42-.48.18-.93.42-1.38.66-.45.24-.48.33-.27.81.15.36.3.7.48 1.05.21.4.3.42.7.21.47-.24 1.01-.42 1.43-.75.18-.15.42-.18.48.15.06.21.24.36.3.57.12.36.06.48-.33.66l-4.4 2.25c-.1.03-.15.15-.24.12-.45-.15-.42-.66-.63-.99-.15-.2.12-.42.36-.5.39-.16.74-.37 1.13-.55.3-.15.33-.33.24-.57-.18-.48-.5-.9-.66-1.4-.06-.22-.3-.19-.5-.1l-1.23.7c-.36.2-.45.17-.66-.19l-.18-.3c-.24-.45-.18-.69.3-.9 1.47-.72 2.96-1.44 4.43-2.19.21-.09.27-.09.42.03.27.21.21.63.48.81z"/><path id="u3c2s" d="M200.77 92.62c-.03.18-.03.4-.12.6-.09.21-.24.33-.5.27-1.05-.3-2.16-.39-3.24-.6-.6-.09-1.2-.24-1.83-.27-.24 0-.33-.18-.33-.39l.03-.57c.03-.36.24-.5.57-.45.36.06.72.06 1.05.21.24.1.48.1.72.1.15 0 .3-.04.33-.22.03-.54.3-1.02.3-1.53 0-.27-.1-.39-.36-.42-.51-.03-1-.3-1.53-.27-.36.03-.54-.18-.51-.54 0-.15.03-.3.06-.42.09-.45.2-.54.63-.45.78.12 1.56.21 2.34.4.84.2 1.68.23 2.51.44.33.1.48.18.42.51 0 .1-.03.18-.03.3-.06.72-.15.78-.84.57-.14-.06-.32-.09-.47-.12-1.02-.15-1.11-.09-1.32.93-.03.18-.03.4-.06.57-.03.54-.03.57.48.6.48.03.9.3 1.37.3.42-.09.3.21.33.45z"/><path id="u3c2t" d="M120.53 32.6l-.18.02a1.8 1.8 0 0 0-1.29 2.82c.51.81 1.3 1.2 2.01.96 1.29-.45 1.77-1.77 1.02-2.9a1.9 1.9 0 0 0-1.56-.9zm3.2 1.8a3.07 3.07 0 0 1-2.36 3.08c-.27.06-.5.24-.8.27a2.7 2.7 0 0 1-1.87-.63 3.1 3.1 0 0 1 .48-5.34 3.2 3.2 0 0 1 2.04-.36c1.02.18 1.71.75 2.19 1.6.24.44.42.92.33 1.37z"/><path id="u3c2u" d="M99.88 52.18c-.93 0-1.7.78-1.7 1.74 0 .48.11.93.47 1.32.42.42.96.66 1.5.72.9.12 1.8-.84 1.8-1.8a2.12 2.12 0 0 0-2.07-1.98zm3.2 1.74c.12 1.35-.92 2.76-2.21 3.2-.75.28-1.56.22-2.31-.2-1.08-.6-1.74-1.5-1.74-2.7 0-1.23.6-2.28 1.7-2.94 1.72-1.02 3.7-.1 4.44 1.56.15.36.1.72.12 1.08z"/><path id="u3c2v" d="M196 59.32c.41.2.56 1.17.23 1.53-.26.3-.47.3-.74.03-.15-.15-.3-.3-.39-.48-.32-.6 0-1.14.72-1.14l.18.06zm-2.07 2.97c-.33.15-.57-.03-.8-.27-.1-.1-.13-.24-.19-.36-.5-1.08-.5-.93.6-1.5.27-.15.42-.03.45.09.18.42.47.8.45 1.32.05.39-.21.6-.51.72zm3.7-1.86c-.37-.9-.76-1.83-1.15-2.73-.09-.24-.33-.18-.48-.1-1.4.82-3.02 1.2-4.46 2.02-.15.09-.4-.06-.45.24-.03.2-.03.42.06.57.36.63.57 1.32.87 1.95.33.72.84 1.26 1.7 1.26.84.03 1.26-.3 1.62-1.3.12-.3.3-.3.45-.17.51.36.93.06 1.26-.18.36-.27.7-.66.66-1.2 0-.12.03-.24-.09-.36z"/><path id="u3c2w" d="M114.18 132.7v-2.46c0-.42.15-.54.63-.57.48-.03.75.15.78.54.03.48 0 .96 0 1.44 0 .24.09.36.33.33.48 0 .96-.03 1.44 0 .33 0 .42-.12.42-.42v-1.29c0-.45.18-.6.69-.6.57 0 .72.12.72.63v4.83c0 .57-.1.63-.78.6-.48 0-.6-.12-.63-.63v-1.5c0-.3-.12-.45-.42-.45h-1.38c-.3 0-.42.12-.42.42.03.51 0 1.02 0 1.5 0 .24.03.54-.27.6-.33.06-.72.15-1.05-.06-.18-.12-.12-.3-.12-.48.06-.8.06-1.62.06-2.43z"/><path id="u3c2x" d="M194.36 105.1c.12.72.54 1.32.8 1.95.18.4.27.7 0 1.05-.09.12-.12.3-.17.45a.26.26 0 0 1-.27.21c-.15 0-.21-.09-.24-.2-.24-.79-.63-1.48-.93-2.2l-.3-.57c-.1-.18-.18-.18-.36-.12-.57.27-1.2.21-1.8.42-.4.15-.84.03-1.23.33-.09.06-.27 0-.48 0 .12-.5.45-.87.6-1.29.06-.15.2-.18.36-.2.57-.04 1.1-.3 1.68-.3.06 0 .09 0 .15-.04.36-.12.96-.06 1.02-.36.06-.3-.57-.33-.87-.54-.3-.2-.66-.33-1-.5-.3-.19-.26-.37-.17-.58.36-.8.42-.8 1.23-.42 1.29.6 2.52 1.32 3.83 1.86.15.06.27.18.42.27.18.1.18.21.15.36 0 .06-.03.15-.06.21-.39.87-.39.84-1.29.42-.3-.15-.56-.48-.95-.36-.06-.15-.12-.36-.3-.2-.1.14 0 .3.18.35z"/><path id="u3c2y" d="M187.01 43.6c-.06.39-.3.57-.5.72-.22.15-.37-.12-.52-.27-.38-.4-.74-.81-1.13-1.2-.3-.33-.36-.33-.7 0-.41.42-.62.45-.02.99.3.3.6.6.9.93.24.27.18.42-.21.8-.24.25-.4.16-.57-.05-.27-.33-.57-.63-.87-.93-.45-.42-.51-.42-.96.03-.06.06-.12.09-.18.12-.33.36-.33.42-.03.75.42.42.84.84 1.26 1.23.18.18.3.36.18.57-.12.2-.27.48-.54.54-.15.03-.24-.1-.36-.21-.78-.78-1.56-1.6-2.37-2.37-.24-.24-.24-.45 0-.66l1.89-1.86c.54-.54 1.1-1.08 1.65-1.65.36-.36.42-.4.75-.03l2.06 2.07c.15.2.24.36.27.48z"/><path id="u3c2z" d="M121.64 132.7v-2.46c0-.33.15-.48.45-.48 1.02 0 2 .03 3.03-.09.27-.03.48.12.6.33.2.4-.03.78-.48.78-.57.03-1.14 0-1.74 0-.3 0-.45.12-.42.42v.3c-.03.36.09.54.48.51.45-.03.9-.03 1.38-.03.42 0 .54.15.54.57 0 .45-.06.57-.51.57h-1.44c-.3 0-.42.12-.42.42-.06 1.02-.06 1.05.96 1.05.45 0 .9.03 1.38 0 .33-.03.48.1.45.45 0 .51-.06.63-.45.66-.63.03-1.26 0-1.86 0h-1.14c-.69 0-.75-.03-.75-.72-.06-.75-.06-1.53-.06-2.28z"/><path id="u3c2A" d="M113.33 38.38l1.47-1.14c.3-.21.54-.12.81.24.18.27.15.45-.15.63-.42.24-.78.57-1.17.84-.39.3-.42.3-.06.69.21.24.3.6.66.75.57-.45 1.14-.9 1.71-1.32.42-.3.9-.12 1.05.39.03.15-.03.27-.15.36-.9.72-1.86 1.35-2.76 2.07-.2.18-.45.12-.66-.15-.54-.78-1.14-1.53-1.7-2.28l-1.3-1.74c-.17-.24-.23-.39.1-.63a40 40 0 0 0 2.54-1.89c.27-.21.48-.18.66.06.27.33.27.63 0 .84-.48.3-.9.72-1.38.99-.33.21-.36.36-.15.66.12.24.3.39.48.63z"/><path id="u3c2B" d="M121.76 123.67c.66.27 1.38.36 2.1.21.54-.12.87-.45 1.08-.96.15-.36 0-.51-.4-.54h-1.5c-.3 0-.5-.06-.47-.45.03-.42.06-.48.5-.51h1.5c.4 0 .49-.18.25-.48-.3-.42-.66-.75-1.2-.78-.42-.03-.81 0-1.23.06-.24.03-.54.15-.63-.24-.1-.33.09-.78.3-.9.96-.48 3.09 0 3.77.87.36.45.6.93.6 1.5 0 .69.12 1.38-.24 2.04-.54.96-1.31 1.56-2.45 1.59-.36 0-.72-.03-1.08 0-.93 0-1.32-.51-.9-1.41z"/><path id="u3c2C" d="M151.5 121.03c0 .08.03.14.03.17-.06.9-.03.84.84.81.66-.03.96-.57.78-1.2-.12-.44-.51-.62-.87-.74-.54-.15-.72 0-.75.57 0 .15-.03.3-.03.38zm.15-1.98c.57.06 1.17-.09 1.77.21.6.3 1.29 1.02 1.17 2.07a2.03 2.03 0 0 1-1.44 1.65c-.42.09-.81.3-1.26.15-.24-.06-.33.12-.36.33-.03.3 0 .57 0 .87-.03.66-.06.69-.7.69-.71 0-.74 0-.74-.75v-4.68c0-.54 0-.54.57-.57.33.03.63.03.99.03z"/><path id="u3c2D" d="M130 132.82c.1-.3.4-.45.6-.66.72-.72 1.44-1.41 2.13-2.13.15-.15.3-.27.48-.39.18.18.15.42.15.63v4.74c0 .63-.54.93-1.08.63-.24-.15-.27-.39-.27-.63v-2.07c0-.15.03-.3-.09-.39-.18-.09-.3.06-.42.18-.63.54-1.14 1.2-1.83 1.68-.45.21-1.02.24-1.29.81-.12-.75-.09-1.47-.09-2.19v-2.67c0-.3.12-.42.42-.42.24 0 .42.06.42.36v.93c0 .21 0 .39.24.45.03.18.03.39 0 .57-.39.12-.24.42-.24.66 0 .21.15.36.33.42.21.09.27-.15.36-.27.1-.06.12-.15.18-.24z"/><path id="u3c2E" d="M93.52 70.69c-.45-.51-1.01-.72-1.43-1.08-.15-.12-.33-.21-.48-.33-.72-.51-.84-.87-.51-1.65.12-.3.36-.18.5-.03.34.3.7.54 1.06.8.92.67 1.85 1.39 2.78 2.08.21.15.4.33.54.54.54.69.6 1.47.1 2.16-.22.27-.85.3-1.09.03-.09-.1-.09-.21-.03-.33l.21-.36c.21-.45-.09-.87-.6-.87-.12 0-.24 0-.36.06-.63.27-1.32.36-1.97.57-.66.2-1.32.3-2.01.48-.27-1.26.18-1.6 1.14-1.62.36-.03.69-.06 1.05-.21.3-.18.65-.18 1.1-.24z"/><path id="u3c2F" d="M139.41 122.05c.54-.39.54-.96.78-1.41.24-.42.39-.84.57-1.29.06-.15.12-.27.27-.27.39 0 .8-.09 1.23.09l-1.32 2.88c-.36.75-.63 1.53-1.05 2.22a1.8 1.8 0 0 1-2.34.78c-.27-.12-.48-.9-.27-1.08.18-.15.4-.15.6 0 .18.15.36.21.57.06.45-.27.51-.48.24-1.02l-1.65-3.36c-.27-.51-.2-.6.4-.6h.5c.24 0 .4.09.48.33.3.9.75 1.68 1 2.67z"/><path id="u3c2G" d="M146.61 132.28c-.03.48-.18.81-.36 1.14-.03.1-.06.21.03.27.3.18.63.06.96.06.1 0 .19-.12.12-.2-.2-.4-.18-.9-.75-1.27zm-2.07 3.45c-.12 0-.2.03-.3.03-.24-.03-.33-.15-.24-.39.27-.57.51-1.14.75-1.68.57-1.26 1.17-2.49 1.74-3.72.06-.12.1-.3.27-.3.21-.03.24.15.33.3.75 1.68 1.53 3.36 2.3 5.04.07.12.13.27.16.4.03.14-.06.3-.18.35-.42.18-1.17-.09-1.32-.54-.15-.39-.36-.54-.75-.48-.18.03-.39.03-.57 0-.57-.06-1.08 0-1.32.66-.18.36-.54.4-.87.33z"/><path id="u3c2H" d="M136.12 30.15c.03-.48-.33-.69-.45-1.01-.06-.21-.42-.24-.45-.06-.03.41-.36.9-.12 1.19.18.24.69-.03 1.02-.12zm-3 2.4c.24-.53.3-1.07.42-1.61.3-1.41.78-2.8.99-4.23.03-.21.12-.4.3-.45.24-.1.3.18.42.33 1.1 1.5 2.13 3.09 3.3 4.56.23.3.15.48-.18.54-.24.03-.48.03-.72.09-.15.06-.4-.03-.45-.15-.3-.87-.96-.48-1.53-.45-.15 0-.3.15-.48.15-.36 0-.54.2-.66.54-.21.75-.48.87-1.41.69z"/><path id="u3c2I" d="M107.37 46.78h.06c.99.8.87.72.3 1.74a3.6 3.6 0 0 1-2.19 1.7c-.45.13-.9.13-1.38-.11-.48-.24-.99-.42-1.38-.81a2.91 2.91 0 0 1-.96-2.5c.12-1.2.87-2 1.8-2.7.18-.14.3.04.45.13.57.42.6.54.06.96a2.07 2.07 0 0 0-.8 2.3c.3 1.12 1.91 1.9 2.93.97.45-.42.72-.93.96-1.5.06-.03.06-.12.15-.18z"/><path id="u3c2J" d="M145.23 123.13c.15 0 .3.03.42 0 .18-.03.27-.2.18-.3-.21-.27-.24-.63-.36-.9-.1-.2-.36-.18-.42.03s-.12.4-.24.57c-.27.45-.15.63.42.6zm-2.79 1.83c.06-.6.42-1.05.66-1.53.6-1.38 1.26-2.73 1.89-4.08.06-.15.09-.33.33-.3.2 0 .27.12.33.3.75 1.68 1.5 3.36 2.28 5.01.06.12.09.21.12.33.08.24 0 .36-.24.36-.18 0-.33-.03-.51 0-.36.06-.63-.12-.7-.45-.05-.42-.32-.48-.65-.45-.27 0-.54.03-.78 0-.6-.06-1.08.03-1.3.7-.02.11-.08.2-.23.2-.45-.03-.81.06-1.2-.09z"/><path id="u3c2K" d="M191.63 54.07c-.27-.21-.51-.06-.75 0-.87.15-.93.03-.36.96.2.33.39.2.48.03.18-.36.48-.63.63-1zm-1.98 2.97c.03-.12 0-.27.12-.4.36-.3.27-.6.03-.92-.18-.24-.33-.51-.48-.78-.21-.4-.45-.72-1.02-.48-.3.12-.42-.18-.6-.4-.18-.2-.39-.44-.33-.71.12-.36.48-.24.75-.24 1.59 0 3.12-.45 4.7-.4.22 0 .37-.08.55-.14.12-.03.26-.12.38.06.1.15.12.3.03.48l-.83 1.2c-.81 1.23-1.74 2.37-2.46 3.69-.12.2-.42.2-.45.06-.1-.4-.42-.63-.4-1.02z"/><path id="u3c2L" d="M174.66 133.78c.65 0 .65 0 .39-.6-.06-.12-.06-.27-.12-.42-.06-.18-.12-.42-.33-.39-.18.03-.2.24-.24.39-.03.24-.2.36-.27.57-.08.27-.02.42.27.42.12.03.21.03.3.03zm-.06.96h-.3c-.47-.09-.8.03-.98.54-.18.42-.84.63-1.3.45-.2-.09-.2-.21-.11-.39.27-.57.5-1.17.78-1.74.54-1.2 1.1-2.37 1.64-3.57.06-.15.1-.33.3-.36.21 0 .27.15.33.33.75 1.71 1.47 3.42 2.31 5.07.27.48.1.69-.5.69-.4 0-.76-.09-.88-.48-.15-.51-.45-.63-.9-.54-.12 0-.24-.03-.39 0 0-.03 0 0 0 0z"/><path id="u3c2M" d="M166.87 123.13c.7 0 .72-.03.45-.66l-.18-.48c-.03-.12-.06-.24-.2-.24-.16 0-.22.09-.28.21-.12.27-.15.6-.36.84-.09.12 0 .33.24.33h.33zm2.91 1.8c-.39.21-.78.12-1.14.09-.27 0-.39-.3-.45-.51-.12-.39-.36-.39-.66-.39h-1.29c-.3 0-.57.03-.63.42-.03.18-.18.42-.39.45-.33.06-.66.03-.99 0-.2-.03-.12-.24-.09-.36.1-.33.27-.6.42-.9.66-1.5 1.41-2.91 2.01-4.41.06-.18.18-.27.36-.3.15 0 .21.09.24.21.9 1.89 1.74 3.78 2.61 5.7z"/><path id="u3c2N" d="M97.96 97.96c.12 1.44-.96 2.52-2.13 2.82-1.92.51-3.33-.33-3.93-2.25a8.3 8.3 0 0 1-.18-.48c-.2-.66.03-1.05.7-1.17.23-.06.44.03.38.33-.06.48.12.9.33 1.32a1.82 1.82 0 0 0 2.28.93c1.68-.6 1.56-2.19.81-3.24-.12-.15-.51-.2-.33-.54.15-.3.48-.27.75-.33.2-.03.33.1.45.24.63.7.87 1.47.87 2.37z"/><path id="u3c2O" d="M141.63 31.42c-.66.03-.72-.03-.75-.72-.03-.7-.09-1.38-.09-2.07 0-.57-.15-1.08-.18-1.62-.03-.27-.18-.36-.42-.36-.27.03-.54 0-.78.03-.41.03-.47-.21-.5-.51-.03-.4.06-.54.41-.6.12-.03.24 0 .36-.03.87-.06 1.77-.1 2.64-.15.24 0 .48 0 .72-.1.21-.08.42-.11.57.1.18.24.15.54.12.8-.03.13-.18.16-.3.19-.18.03-.33.03-.5.03-.88.03-.97.12-.85.99a20.88 20.88 0 0 1 .27 3.27c0 .69 0 .72-.72.75z"/><path id="u3c2P" d="M96.44 91.72c0 .15 0 .27-.18.33s-.36.18-.54.21c-.78.03-1.5.33-2.25.4-.54.02-.99.3-1.53.32-.3.03-.24.27-.18.45.12.27.18.54.21.84.03.45-.03.51-.54.54-.45.03-.57-.06-.63-.45-.06-.42-.15-.84-.24-1.26-.2-.8-.27-1.65-.42-2.46-.06-.33.1-.57.42-.63.3-.06.51-.03.57.33.06.3.15.6.18.9.06.27.18.36.45.3.87-.15 1.74-.27 2.6-.48.49-.12 1-.12 1.48-.3.15-.06.24 0 .3.12.12.24.3.51.3.84z"/><path id="u3c2Q" d="M94.25 61.42c-.27.27-.15.69-.39 1.02-.18.24-.09.42.2.54l3.6 1.2c.6.2.7.42.4 1.02-.27.54-.36.57-.84.39-.78-.3-1.56-.57-2.34-.84-.4-.15-.81-.27-1.2-.42-.3-.12-.51-.03-.54.33-.03.24-.21.42-.27.66-.12.39-.36.48-.75.33-.3-.12-.39-.33-.27-.66.42-1.26.87-2.52 1.32-3.78.09-.3.3-.42.51-.21.18.15.5.06.57.42z"/><path id="u3c2R" d="M108.88 38.95c.75.72.75.78 0 1.44-.51.48-.51.45-.03.96l2.48 2.61c.33.36.33.45-.06.81-.63.6-.6.6-1.17-.03-.77-.87-1.61-1.71-2.4-2.55-.23-.27-.41-.33-.68-.03-.15.18-.36.33-.54.48-.4.3-.84.21-1-.24-.05-.21.04-.33.19-.48.84-.78 1.62-1.56 2.49-2.34.2-.21.39-.54.72-.63z"/><path id="u3c2S" d="M185.9 51.49l-.45-.63c-.3-.42-.3-.51.1-.78.8-.63 1.67-1.2 2.45-1.86 1.14-.93.96-.66.21-1.65-.33-.45-.3-.51.24-.9.27-.18.42-.12.7.24.68.93 1.4 1.89 2.12 2.82.03.06.09.09.15.15.27.36.24.54-.15.8-.3.22-.42.16-.72-.17-.78-.84-.48-1.05-1.65-.18l-2.34 1.8c-.24.15-.45.24-.66.36z"/><path id="u3c2T" d="M90.77 75.7v.27c-.03.78-.03.78.78.81 1.2.03 2.4.15 3.57.27.39.03.5.21.45.54-.03.18 0 .33-.06.51-.06.3-.24.51-.57.39-1.2-.36-2.49-.12-3.72-.33-.45-.06-.5 0-.66.45-.09.24-.12.51-.12.78s-.09.42-.36.39c-.3 0-.6.06-.69-.33a.73.73 0 0 1 0-.36c.24-1.2.15-2.43.27-3.66.03-.36.15-.51.51-.51.57 0 .6 0 .6.6v.18z"/><path id="u3c2U" d="M151.97 133.24v-1.65c0-.78-.03-.78-.78-.78h-.42c-.24 0-.45-.06-.39-.36.03-.27-.15-.6.3-.69.12-.03.24-.03.36-.03 1.2.06 2.4.06 3.57 0 .45-.03.57.1.57.51 0 .48-.03.54-.51.57h-.06c-1.17.03-1.17.03-1.17 1.2v3c0 .63-.1.72-.7.72-.56 0-.74-.15-.74-.78-.03-.57-.03-1.14-.03-1.7z"/><path id="u3c2V" d="M200.5 74.26v1.14c0 .12-.03.27.12.3.18.06.24-.09.33-.18.12-.15.12-.3.12-.48V73.6c0-.21-.09-.42-.15-.63-.03-.12-.12-.21-.27-.18-.12.03-.15.12-.15.21v1.26zm1.14 2.19c.09.39-.03.63-.45.75-.45.12-.63.03-.69-.42-.03-.21-.03-.42-.06-.66-.06-.51-.18-.63-.63-.54-1.02.24-2.1.21-3.12.42-.15.03-.27.06-.41.06-.63.09-.78-.03-.87-.72-.06-.6.03-.69.63-.75 1.16-.12 2.3-.27 3.47-.42.6-.09.66-.18.6-.81 0-.12-.03-.24-.06-.36-.09-.57.1-.75.63-.75.21 0 .33.06.4.24.05.18.11.36.14.54.15 1.2.15 2.34.42 3.42z"/><path id="u3c2W" d="M129.37 131.68c-.27-.06-.24-.24-.24-.45v-.93c0-.3-.18-.33-.42-.36-.3 0-.42.12-.42.42v2.67c0 .72-.06 1.44.1 2.19.23-.57.83-.6 1.28-.81-.3.48-.78.84-1.17 1.23-.2.2-.39.12-.45-.15-.03-.12 0-.24 0-.36v-4.65c0-.7.57-1.02 1.2-.7.18.1.21.25.21.43-.06.45 0 .96-.09 1.47z"/><path id="u3c2X" d="M130.84 129.37c-.6 0-1.2-.45-1.35-1.02-.06-.21 0-.4.18-.48.18-.1.33 0 .42.15.21.27.33.63.75.66.45.03.57-.36.75-.63.12-.18.27-.27.48-.18.24.12.12.3.06.48-.18.69-.6 1.02-1.29 1.02z"/><path id="u3c2Y" d="M137.83 95.11c.18.75.12 1.5.03 2.25-.06.45-.1.9 0 1.35.09.57.15 1.14-.03 1.68-.06-.09-.15-.15-.15-.24-.18-1.59-.21-3.18.06-4.77 0-.09.06-.18.09-.27z"/><path id="u3c2Z" d="M138.76 89.59c.09.78-.06 1.5-.36 2.22a.38.38 0 0 1-.21.27c0-.09-.06-.18-.03-.27.15-.57.27-1.14.36-1.74 0-.18.06-.36.24-.48z"/><path id="u3c2aa" d="M138.16 102.28c.27.12.27.42.36.66.2.57.39 1.17.75 1.68.09.12.12.27.09.39-.54-.42-.66-1.08-.9-1.65-.15-.33-.42-.66-.3-1.08z"/><path id="u3c2ab" d="M140.23 84.61c.12.57-.21 1.05-.42 1.53-.15.33.03.81-.42 1.02-.06-.51.24-.93.39-1.41.09-.36.12-.81.45-1.14z"/><path id="u3c2ac" d="M139.33 87.43c.03.3.03.6-.12.9-.12.21-.15.45-.15.69 0 .18-.06.33-.27.33.03-.69.15-1.35.54-1.92z"/><path id="u3c2ad" d="M138.1 92.65c.2.6 0 1.17-.24 1.71a2.87 2.87 0 0 1 .24-1.71z"/><path id="u3c2ae" d="M130 132.82c-.05.09-.08.18-.14.24-.12.12-.15.36-.36.27-.18-.06-.33-.21-.33-.42 0-.24-.15-.54.24-.66 0 .06.03.12.03.21.03.51.03.51.57.36z"/><path id="u3c2af" d="M137.86 100.99c.27.3.45.6.24.99-.3-.27-.3-.63-.24-.99z"/><path id="u3c2ag" d="M139.39 105.16c.42.06.48.39.54.75-.3-.15-.51-.39-.54-.75z"/><path id="u3c2ah" d="M139.95 106.03c.24 0 .27.18.27.39-.15-.1-.3-.18-.27-.39z"/><path id="u3c2ai" d="M157.52 29.59c.06-.15.15-.27.3-.15.15.12.06.24-.03.36-.12-.06-.21-.15-.27-.21z"/><path id="u3c2aj" d="M194.35 105.1c-.17-.06-.26-.24-.11-.36.2-.18.26.06.3.21l-.19.15z"/><path id="u3c2ak" d="M200.5 74.26v-1.23c0-.1.03-.18.15-.21.15-.03.21.03.27.18.06.2.15.39.15.63v1.44c0 .18 0 .33-.12.48-.09.12-.18.24-.33.18-.15-.06-.12-.18-.12-.3v-1.17z"/></defs><g><g transform="translate(-89 -25)"><g><use fill="#2a2984" xlink:href="#u3c2a"/></g><g><use fill="#3c3888" xlink:href="#u3c2b"/></g><g><use fill="#3c3888" xlink:href="#u3c2c"/></g><g><use fill="#3c3888" xlink:href="#u3c2d"/></g><g><use fill="#3c3888" xlink:href="#u3c2e"/></g><g><use fill="#3c3888" xlink:href="#u3c2f"/></g><g><use fill="#3c3888" xlink:href="#u3c2g"/></g><g><use fill="#3c3888" xlink:href="#u3c2h"/></g><g><use fill="#3c3888" xlink:href="#u3c2i"/></g><g><use fill="#3c3888" xlink:href="#u3c2j"/></g><g><use fill="#3c3888" xlink:href="#u3c2k"/></g><g><use fill="#3c3888" xlink:href="#u3c2l"/></g><g><use fill="#3c3888" xlink:href="#u3c2m"/></g><g><use fill="#3c3888" xlink:href="#u3c2n"/></g><g><use fill="#3c3888" xlink:href="#u3c2o"/></g><g><use fill="#3c3888" xlink:href="#u3c2p"/></g><g><use fill="#3c3888" xlink:href="#u3c2q"/></g><g><use fill="#3c3888" xlink:href="#u3c2r"/></g><g><use fill="#3c3888" xlink:href="#u3c2s"/></g><g><use fill="#3c3888" xlink:href="#u3c2t"/></g><g><use fill="#3c3888" xlink:href="#u3c2u"/></g><g><use fill="#3c3888" xlink:href="#u3c2v"/></g><g><use fill="#3c3888" xlink:href="#u3c2w"/></g><g><use fill="#3c3888" xlink:href="#u3c2x"/></g><g><use fill="#3c3888" xlink:href="#u3c2y"/></g><g><use fill="#3c3888" xlink:href="#u3c2z"/></g><g><use fill="#3c3888" xlink:href="#u3c2A"/></g><g><use fill="#3c3888" xlink:href="#u3c2B"/></g><g><use fill="#3c3888" xlink:href="#u3c2C"/></g><g><use fill="#2a2984" xlink:href="#u3c2D"/></g><g><use fill="#3c3888" xlink:href="#u3c2E"/></g><g><use fill="#3c3888" xlink:href="#u3c2F"/></g><g><use fill="#3c3888" xlink:href="#u3c2G"/></g><g><use fill="#3c3888" xlink:href="#u3c2H"/></g><g><use fill="#3c3888" xlink:href="#u3c2I"/></g><g><use fill="#3c3888" xlink:href="#u3c2J"/></g><g><use fill="#3c3888" xlink:href="#u3c2K"/></g><g><use fill="#3c3888" xlink:href="#u3c2L"/></g><g><use fill="#3c3888" xlink:href="#u3c2M"/></g><g><use fill="#3c3888" xlink:href="#u3c2N"/></g><g><use fill="#3c3888" xlink:href="#u3c2O"/></g><g><use fill="#3c3888" xlink:href="#u3c2P"/></g><g><use fill="#3c3888" xlink:href="#u3c2Q"/></g><g><use fill="#3c3888" xlink:href="#u3c2R"/></g><g><use fill="#3c3888" xlink:href="#u3c2S"/></g><g><use fill="#3c3888" xlink:href="#u3c2T"/></g><g><use fill="#3c3888" xlink:href="#u3c2U"/></g><g><use fill="#3c3888" xlink:href="#u3c2V"/></g><g><use fill="#3c3888" xlink:href="#u3c2W"/></g><g><use fill="#3c3888" xlink:href="#u3c2X"/></g><g><use fill="#3c3888" xlink:href="#u3c2Y"/></g><g><use fill="#3c3888" xlink:href="#u3c2Z"/></g><g><use fill="#3c3888" xlink:href="#u3c2aa"/></g><g><use fill="#3c3888" xlink:href="#u3c2ab"/></g><g><use fill="#3c3888" xlink:href="#u3c2ac"/></g><g><use fill="#3c3888" xlink:href="#u3c2ad"/></g><g><use fill="#3c3888" xlink:href="#u3c2ae"/></g><g><use fill="#3c3888" xlink:href="#u3c2af"/></g><g><use fill="#3c3888" xlink:href="#u3c2ag"/></g><g><use fill="#3c3888" xlink:href="#u3c2ah"/></g><g><use fill="#fefefe" xlink:href="#u3c2ai"/></g><g><use fill="#fefefe" xlink:href="#u3c2aj"/></g><g><use fill="#2a2984" xlink:href="#u3c2ak"/></g></g></g></svg>