<svg xmlns="http://www.w3.org/2000/svg" xmlns:xlink="http://www.w3.org/1999/xlink" width="88" height="87" viewBox="0 0 88 87"><defs><path id="s4v4a" d="M645.63 7470.58c.02-.56-.12-1.13-.14-1.7-.05-1.17-.3-2.32-.59-3.47-.09-.36-.14-.73-.25-1.08-.19-.57-.42-1.11-.59-1.65-.25-.87-.63-1.7-1.02-2.5-.5-.98-1-1.97-1.6-2.88-.22-.38-.5-.76-.71-1.18-.1-.21-.28-.19-.4.02-.33.64-.65 1.27-.96 1.93a38.28 38.28 0 0 0-2.29 6.77c-.3 1.37-.53 2.75-.56 4.16 0 .33-.02.64-.04.97-.07.94.02 1.88.4 2.75a5.72 5.72 0 0 0 2.77 3.06c.77.37 1.59.51 2.38.3a4.35 4.35 0 0 0 2.5-1.78 6.36 6.36 0 0 0 1.1-3.72zm-9.95 5.93c-.02-.03-.02-.07-.02-.1-.05-.26-.1-.52-.42-.59l-.02-.11c0-.12 0-.22-.07-.31-.28-.4-.42-.85-.59-1.32-.07-.18-.04-.4-.28-.51-.04-.07-.04-.14-.04-.24.16-.3.02-.56-.19-.77a.65.65 0 0 1-.02-.47c.14-.45.09-.9.02-1.32-.07-.35-.05-.7 0-1.06.1-.59.12-1.18-.02-1.76-.03-.2-.05-.38.04-.57.19-.42.35-.87.19-1.34a.67.67 0 0 1 .07-.47.3.3 0 0 0 .16-.21c.21-.56.35-1.15.28-1.74-.02-.07-.02-.14.03-.19.16 0 .2-.12.2-.26 0-.18.03-.37.12-.54.14-.2.12-.44.1-.7l.02-.21c.35-.15.21-.55.33-.8.16-.38.42-.76.32-1.2-.04-.33.2-.61.3-.9.66-1.69 1.5-3.34 2.39-4.91.14-.26.12-.4-.07-.61a37.74 37.74 0 0 0-5.04-4.82 31.65 31.65 0 0 0-6.52-3.98 78.8 78.8 0 0 0-3.24-1.36c-.3-.12-.35-.1-.35.26-.02.47 0 .94 0 1.4v29.24c0 1.13.44 1.97 1.5 2.47.18.09.34.11.53.11.28 0 .35.17.4.38.02.07 0 .14 0 .23.02.76.02.76-.73.76h-8c-.21.02-.28-.1-.3-.3-.1-.97-.05-1.02.88-1.04h.84c1.33.02 2.31-1.25 2.29-2.33v-.57-30.92c0-.87.02-1.74-.05-2.58a3.96 3.96 0 0 0-1.6-3.2 5.4 5.4 0 0 0-2.02-.85c-.28-.07-.37-.16-.35-.44.03-.17 0-.33 0-.52.03-.35.17-.52.5-.42.7.18 1.4.09 2.1.2.86.15 1.7.29 2.56.48.54.12 1.05.3 1.59.5.82.27 1.63.58 2.45.86 1 .33 1.94.82 2.9 1.27 1.3.64 2.52 1.41 3.75 2.16 1.33.83 2.57 1.77 3.76 2.76a40.59 40.59 0 0 1 5.49 5.4c.16.22.25.2.42-.02a42.11 42.11 0 0 1 7.63-7.45c1.3-1 2.64-1.88 4.06-2.68a27.56 27.56 0 0 1 4.23-1.96c1-.35 2-.72 3.05-.96.56-.14 1.1-.3 1.66-.4.56-.1.56-.05.56.5v42.08c0 .24-.07.38-.37.38h-6.12c-.32 0-.42-.1-.42-.45-.02-.4 0-.8 0-1.17v-35.39-.4c.05-.47-.25-.47-.54-.33-1.3.75-2.6 1.53-3.85 2.4a40.46 40.46 0 0 0-7.86 7.5c-.07.1-.17.16-.21.24-.38.44-.38.58-.03 1.05a35.6 35.6 0 0 1 3.37 5.95c.4.87.7 1.81 1.05 2.7.37.95.53 1.93.88 2.87.12.36.17.73.21 1.11.1.61.26 1.2.33 1.81.19 1.48.2 2.96.23 4.44.03.9-.04 1.77-.28 2.61-.72 2.5-2.03 4.54-4.32 5.86a6.5 6.5 0 0 1-3 .96c-.26 0-.52.2-.78.12-.63-.16-1.26-.14-1.91-.33a7.85 7.85 0 0 1-3.97-2.7c.02-.14 0-.26-.19-.28z"/><path id="s4v4b" d="M631.3 7489.07v-.68c0-1.16.04-.85-.97-.9-.28-.02-.42.12-.44.4-.02.8-.19 1.6-.49 2.35-.07.2 0 .29.21.29h1.33c.23 0 .33-.1.33-.33.02-.38.02-.76.02-1.13zm1.11-.45v1.46c0 .26.03.45.35.42.24-.02.33.14.33.38 0 .42.02.82 0 1.24-.02.31-.14.38-.56.38-.33 0-.44-.14-.44-.45 0-.18.16-.42-.05-.58-.17-.14-.4-.07-.6-.07h-2.65c-.25 0-.4.07-.35.35v.23c-.02.45-.3.64-.74.5-.17-.05-.19-.17-.19-.3v-1.37c0-.12.02-.28.19-.28.74 0 .86-.6.93-1.09.12-.72.28-1.43.28-2.16 0-.5.1-.54.58-.54h2.4c.45 0 .48.02.48.47.04.47.04.94.04 1.41z"/><path id="s4v4c" d="M650.45 7490.54h1.66c.4 0 .42-.05.42-.48v-1.98c0-.56-.02-.59-.6-.59h-.5c-.18 0-.3.1-.28.26.03.4-.18.78-.18 1.16a4.53 4.53 0 0 1-.52 1.63zm1.47-3.82h1c.66 0 .69 0 .69.63v2.59c0 .28-.05.59.4.56.13 0 .16.14.16.26v1.46c0 .23-.17.26-.35.26-.21-.03-.5.04-.54-.26-.05-.19-.02-.38-.02-.57 0-.18-.07-.28-.26-.28h-3.04c-.18 0-.25.1-.25.28v.29c-.03.5-.35.7-.8.5-.11-.06-.16-.17-.16-.3v-1.4c0-.17.1-.28.28-.26.37.05.54-.24.65-.5.12-.25.21-.54.21-.82.03-.7.26-1.4.28-2.11.03-.26.12-.38.38-.38.46.05.9.05 1.37.05z"/><path id="s4v4d" d="M635.84 7497.54c.82-.78 1.43-1.77 2.25-2.52.18.12.16.28.16.42v3.84c0 .18.02.37-.19.49-.18.1-.65.05-.8-.07-.13-.1-.1-.21-.1-.35v-1.18c0-.12.04-.26-.15-.35-.33.26-.58.56-.84.9-.23.3-.33.3-.6.02l-.9-1c-.18.08-.13.22-.16.36v1.3c0 .37-.09.44-.6.44-.35 0-.47-.12-.47-.45v-3.95-.11c0-.12 0-.24.16-.26.12-.03.17.04.24.11l1.91 2.29s.05.02.1.07z"/><path id="s4v4e" d="M665.07 7423.44c-.47.43-.7.92-1.05 1.32-.33.38-.3.4-.65.1-.07-.08-.14-.15-.21-.2-.24-.14-.19-.32-.07-.46.81-1.06 1.65-2.12 2.45-3.18.07-.07.11-.21.2-.19.12.05.17.17.2.3.02.53.06 1.07.09 1.58l.04 1.13c.03.28.14.43.4.3.5-.23 1.07-.13 1.56-.34.38-.17.82-.03 1.17-.29.07-.04.19-.02.26.07.07.12.02.22-.05.3-.3.36-.58.74-.86 1.11-.52.71-1.1 1.4-1.59 2.12-.19.26-.35.28-.6.07l-.26-.21c-.26-.16-.24-.26-.05-.52.28-.35.54-.7.8-1.06.06-.07.11-.14.06-.23-.04-.07-.11-.07-.2-.05-.29.05-.59.07-.87.17-.49.18-.63.07-.7-.45-.02-.45.02-.87-.07-1.39z"/><path id="s4v4f" d="M653.51 7497.4l-.02-.34c-.02-.8-1.17-1.57-2.06-.94-.65.47-.72 1.1-.56 1.81.2.83 1.2 1.23 1.87.87.6-.28.77-.77.77-1.4zm1.1 0c.1 1.31-1.07 2.42-2.38 2.44-1.54.02-2.55-.99-2.57-2.38a2.45 2.45 0 0 1 2.45-2.49c1.33-.05 2.62 1.1 2.5 2.42z"/><path id="s4v4g" d="M642.54 7415.86c.3-.16.5-.4.73-.58.65-.6 1.33-1.16 2-1.74.12-.12.24-.22.38-.14.16.07.1.23.1.35-.1 1.3-.24 2.58-.24 3.88 0 .4-.07.42-.5.42-.09 0-.18-.02-.27 0-.28.02-.38-.12-.35-.38l.07-1.57.02-.4a.21.21 0 0 0-.1-.19c-.09-.05-.16 0-.23.07l-2.14 1.9c-.12.1-.21.22-.33.29-.21.14-.35.07-.33-.21l.07-1.98.14-1.97c.05-.5.1-.52.6-.47.45.04.55.14.5.56-.07.61-.14 1.22-.14 1.86-.02.1 0 .16.02.3z"/><path id="s4v4h" d="M659.11 7419.56c-.14-.11-.28-.1-.4-.04-.93.42-1.93.65-2.86 1.08l-.17.04c-.25.03-.32-.07-.23-.32.19-.45.4-.9.6-1.32.38-.78.66-1.6 1.1-2.35.17-.3.28-.36.56-.21.07.02.12.09.19.11.35.22.37.29.21.66-.19.4-.4.8-.58 1.2-.07.19-.26.4-.07.57.16.14.4.02.58-.05.82-.35 1.66-.61 2.5-.9.04-.02.1 0 .11-.02.12-.14.26-.26.42-.12.12.12-.02.31-.07.45l-1.68 3.7c-.02.04-.04.11-.09.13-.3.12-.49-.18-.75-.26-.11-.02-.23-.16-.14-.35l.7-1.55c0-.14.05-.3.07-.45z"/><path id="s4v4i" d="M677.74 7471.34c0-.07.02-.17.05-.28.14-.43.23-.5.67-.33.45.16.94.23 1.36.47.02.02.07.02.12.02.11.02.28.1.37-.02.1-.12.02-.26-.02-.38-.4-.85-.8-1.67-1.22-2.5l-.1-.13c-.04-.17-.18-.33-.02-.47.12-.1.28-.03.42.02.92.33 1.85.63 2.78.92.33.1.68.14.96.35.16.12.23.19.14.4-.28.66-.26.63-.96.42-.49-.14-1-.28-1.47-.5-.1-.04-.18-.06-.25.03-.07.1-.03.19.02.26l.75 1.53c.25.5.49.99.74 1.46.07.11.1.26 0 .37-.1.12-.2.03-.3-.02-.58-.21-1.14-.4-1.73-.59-.72-.23-1.42-.5-2.15-.7-.18-.05-.16-.17-.16-.33z"/><path id="s4v4j" d="M600.01 7460.76c-.07-.22-.3-.29-.44-.45-.63-.66-1.33-1.2-1.99-1.84-.09-.09-.16-.18-.3-.23-.12-.02-.21-.12-.19-.24.03-.16.19-.14.3-.16h.12c1.26-.05 2.52 0 3.79-.21.53-.1.56-.05.58.52v.16c0 .42 0 .42-.42.45-.4.02-.8.02-1.17.02-.16 0-.33.02-.49.07-.33.1-.35.19-.12.42a69.45 69.45 0 0 0 2.27 2.07c.12.1.19.21.16.33-.04.17-.2.12-.32.14-1.24.07-2.46.26-3.7.24-.2 0-.46.1-.58-.12-.14-.23-.11-.54-.04-.82.04-.19.23-.21.42-.21l1.72-.07c.14.02.28.07.4-.07z"/><path id="s4v4k" d="M650.36 7416.6c-.58.18-1.07.58-1.58.91-.4.26-.82.47-1.2.75-.06.05-.2.2-.34.05-.12-.12-.07-.23-.05-.37.33-1.11.49-2.26.72-3.4.03-.13.14-.27.14-.41 0-.33.19-.36.45-.33.6.04.63.1.56.7-.05.52-.28 1.01-.3 1.55 0 .12-.08.24.04.31.12.1.26 0 .35-.07l2.52-1.62c.1-.07.16-.17.28-.14.12.02.23.04.19.2-.21.74-.28 1.51-.5 2.24-.13.52-.2 1.06-.32 1.6-.02.12-.02.26-.1.38-.1.23-.27.18-.5.11-.59-.18-.66-.25-.47-.82.16-.5.16-.99.25-1.48.1-.1.14-.19.03-.28-.07-.1-.14 0-.17.11z"/><path id="s4v4l" d="M674.84 7481.97c.14-.19.1-.35.07-.5-.2-.94-.37-1.9-.49-2.86 0-.1-.02-.2-.07-.29-.02-.1-.11-.2.03-.28.09-.05.18-.07.3.02 1.1.83 2.22 1.6 3.36 2.36.19.11.24.28.07.47-.07.07-.1.14-.16.23-.24.35-.35.4-.68.12-.47-.38-1-.66-1.45-1.06-.07-.07-.14-.05-.2-.02-.08.02-.1.11-.08.19.14.47.07.96.21 1.43.2.61.24 1.3.33 1.93.02.12 0 .23-.07.33-.19.02-.28-.12-.42-.21l-2.96-2.05c-.07-.05-.14-.14-.21-.16-.26-.12-.26-.29-.1-.5.05-.07.07-.14.12-.19.33-.42.26-.47.75-.11l1.65 1.15z"/><path id="s4v4m" d="M682.53 7456.57c-.14 0-.26.03-.4.03a1.34 1.34 0 0 0-1.05 1.83c.4.94 1.38 1.22 2.29.7.37-.2.63-.56.65-1.03.03-.9-.58-1.53-1.5-1.53zm2.4 1.39c-.02 1.43-1.02 2.5-2.36 2.5-1.56 0-2.45-1.14-2.47-2.52a2.42 2.42 0 0 1 2.4-2.52c1.2-.02 2.48 1.18 2.43 2.54z"/><path id="s4v4n" d="M657.88 7495.93h.5c.25.02.39.2.43.43.05.26-.04.42-.32.5-.12.02-.24.09-.35.11-.54.1-.73-.04-.7-.61 0-.43 0-.43.44-.43zm-.07 3.01c-.28 0-.37-.11-.37-.37 0-.95-.1-.9.8-.86h.16c.47.05.66.22.66.6 0 .37-.28.61-.7.63h-.29c-.1 0-.19-.02-.26 0zm-1.45-1.53c0 .62 0 1.23-.02 1.84.02.4.14.52.54.52h1.44c.38 0 .77-.05 1.08-.24.77-.47.93-1.41.25-2.07-.16-.16-.25-.3-.09-.56.56-.85-.05-1.77-.86-1.77l-1.85-.02c-.42 0-.49.07-.49.5v1.8z"/><path id="s4v4o" d="M606.36 7480.51c.17.21.35.28.59.3.7.05 1.37.29 2.08.43.28.05.56.1.84.1.14 0 .25.04.28.2.02.12-.05.2-.17.26a45.5 45.5 0 0 0-3.27 2.3c-.18.15-.37.12-.5-.09-.08-.1-.15-.2-.22-.33-.19-.3-.16-.3.14-.51.56-.4 1.14-.76 1.7-1.27-1.28-.43-2.59-.5-3.87-.87.14-.21.3-.33.49-.47.96-.66 1.91-1.34 2.85-2.03.44-.32.49-.35.81.1.1.14.2.28.29.45-.64.54-1.34.96-2.04 1.43z"/><path id="s4v4p" d="M628.38 7415.02c.18.02.28.14.3.28.26.97.65 1.86.93 2.8.12.33.24.66.35 1.01.07.21.03.28-.16.38-.77.35-.82.37-1.05-.45-.23-.78-.58-1.53-.77-2.33-.02-.11-.12-.23-.16-.35-.05-.12-.14-.16-.26-.12-.37.14-.75.3-1.14.43-.24.07-.24.2-.2.4.15.47.29.91.48 1.38.18.52.4 1.01.58 1.5.07.22.14.45-.23.5-.14.03-.24.19-.4.19-.23.02-.42-.02-.5-.28-.32-1.25-.8-2.42-1.18-3.65-.12-.4-.12-.44.26-.56.93-.33 1.86-.68 2.82-.94.14-.03.19-.17.33-.19z"/><path id="s4v4q" d="M684 7448.08c-.52.05-.92.31-1.39.33-.3.03-.6.17-.9.26-.66.2-1.34.28-1.97.54-.23.1-.35.03-.42-.2-.2-.74-.23-.76.52-.97.49-.14.98-.36 1.51-.38.1 0 .2-.02.21-.14.03-.1-.04-.19-.11-.23-.3-.15-.56-.36-.87-.52-.7-.35-1.3-.87-2.03-1.2-.16-.07-.16-.17-.16-.3.02-.17.12-.17.23-.2.54-.07 1.05-.25 1.57-.4.4-.11.81-.25 1.23-.28.35-.02.61-.3.96-.28.16 0 .35-.1.45.12.11.23.25.47.2.75-.02.12-.11.12-.2.14-.52.19-1.06.33-1.6.45-.1.02-.25.02-.37.12-.18.14-.18.2.03.33.93.54 1.84 1.1 2.78 1.64.18.12.28.21.32.42z"/><path id="s4v4r" d="M605.59 7473.92c.02.21-.08.26-.22.33-.37.14-.72.33-1.07.52-.35.18-.37.25-.2.63.1.28.22.54.36.82.17.3.24.33.54.17.37-.2.8-.33 1.12-.59.14-.12.33-.14.38.12.04.16.18.28.23.44.1.29.05.38-.26.52l-3.43 1.76c-.07.03-.12.12-.19.1-.35-.12-.32-.52-.49-.78-.11-.16.1-.33.28-.4.3-.11.59-.28.9-.42.22-.12.25-.26.18-.45-.14-.37-.4-.7-.52-1.1-.04-.17-.23-.14-.4-.07l-.95.54c-.28.16-.35.14-.51-.14l-.14-.24c-.19-.35-.14-.54.23-.7 1.14-.57 2.31-1.13 3.45-1.72.17-.07.21-.07.33.02.21.17.16.5.38.64z"/><path id="s4v4s" d="M684.04 7466c-.02.15-.02.31-.1.47-.06.17-.18.26-.39.22-.82-.24-1.68-.3-2.52-.47-.47-.07-.93-.2-1.42-.22-.19 0-.26-.14-.26-.3l.02-.45c.03-.28.19-.4.45-.35.28.05.56.05.81.16.2.07.38.07.56.07.12 0 .24-.02.26-.16.02-.42.23-.8.23-1.2 0-.21-.07-.3-.28-.33-.4-.02-.77-.23-1.19-.21-.28.02-.42-.14-.4-.42 0-.12.03-.24.05-.33.07-.36.17-.43.5-.36.6.1 1.2.17 1.81.31.66.16 1.31.19 1.97.35.25.07.37.14.32.4l-.02.24c-.05.56-.12.6-.65.44-.12-.04-.26-.07-.38-.09-.8-.12-.86-.07-1.03.73l-.04.45c-.03.42-.03.44.37.47.37.02.7.23 1.08.23.32-.07.23.17.25.35z"/><path id="s4v4t" d="M621.55 7418.95l-.14.02a1.41 1.41 0 0 0-1 2.21c.4.64 1 .94 1.56.76 1-.36 1.38-1.4.8-2.29-.26-.4-.64-.65-1.22-.7zm2.5 1.41a2.4 2.4 0 0 1-1.85 2.42c-.2.05-.4.19-.63.21a2.09 2.09 0 0 1-1.44-.49c-.63-.52-1.05-1.18-1-2.07.04-.99.55-1.67 1.37-2.12a2.36 2.36 0 0 1 3.3.96c.18.36.32.74.25 1.09z"/><path id="s4v4u" d="M605.47 7434.3c-.72 0-1.33.61-1.33 1.36 0 .38.1.73.37 1.04.33.33.75.51 1.17.56.7.1 1.4-.66 1.4-1.4a1.66 1.66 0 0 0-1.6-1.56zm2.5 1.36c.1 1.06-.73 2.17-1.73 2.52-.58.21-1.21.16-1.8-.17-.84-.47-1.35-1.17-1.35-2.11 0-.97.47-1.79 1.33-2.3 1.33-.8 2.87-.08 3.46 1.22.11.28.07.56.09.84z"/><path id="s4v4v" d="M680.33 7439.9c.33.17.45.91.19 1.2-.21.23-.38.23-.59.02a1.53 1.53 0 0 1-.3-.38c-.26-.46 0-.88.56-.88l.14.04zm-1.61 2.32c-.26.12-.45-.02-.63-.21-.07-.07-.1-.19-.14-.28-.4-.84-.4-.73.46-1.17.21-.12.33-.02.35.07.14.33.38.63.35 1.03.05.3-.16.47-.4.56zm2.87-1.45a82.9 82.9 0 0 0-.88-2.14c-.07-.19-.26-.14-.38-.07-1.1.64-2.36.94-3.48 1.58-.11.07-.3-.05-.35.19-.02.16-.02.32.05.44.28.5.44 1.04.68 1.53.25.56.65.99 1.33.99.65.02.98-.24 1.26-1.01.1-.24.23-.24.35-.14.4.28.72.04.98-.15.28-.2.54-.51.51-.94 0-.09.03-.18-.07-.28z"/><path id="s4v4w" d="M616.6 7497.42v-1.93c0-.33.12-.42.5-.45.37-.02.58.12.6.43.02.37 0 .75 0 1.12 0 .2.07.29.26.26.37 0 .74-.02 1.12 0 .26 0 .33-.1.33-.33v-1c0-.36.14-.48.53-.48.45 0 .56.1.56.5v3.78c0 .45-.07.5-.6.47-.38 0-.47-.1-.5-.5v-1.17c0-.23-.09-.35-.32-.35H618c-.23 0-.32.1-.32.33.02.4 0 .8 0 1.17 0 .2.02.43-.21.48-.26.04-.56.11-.82-.05-.14-.1-.1-.24-.1-.38.05-.63.05-1.27.05-1.9z"/><path id="s4v4x" d="M679.04 7475.78c.1.56.42 1.03.64 1.53.14.3.2.54 0 .82-.07.1-.1.24-.15.35a.2.2 0 0 1-.2.17c-.12 0-.17-.07-.2-.17-.18-.6-.48-1.15-.72-1.71-.07-.17-.16-.3-.23-.45-.07-.14-.14-.14-.28-.1-.44.22-.93.17-1.4.34-.3.11-.65.02-.96.25-.07.05-.2 0-.37 0 .1-.4.35-.68.47-1 .04-.12.16-.15.28-.17.44-.02.86-.24 1.3-.24.05 0 .07 0 .12-.02.28-.1.75-.05.8-.28.04-.24-.45-.26-.68-.43-.24-.16-.52-.25-.77-.4-.24-.14-.21-.28-.14-.44.28-.64.32-.64.95-.33 1 .47 1.96 1.03 3 1.46.1.04.2.14.32.2.14.08.14.17.12.3 0 .04-.03.1-.05.16-.3.68-.3.65-1 .32-.24-.11-.45-.37-.75-.28-.05-.12-.1-.28-.24-.16-.07.12 0 .23.14.28z"/><path id="s4v4y" d="M673.33 7427.58c-.05.3-.23.45-.4.56-.16.12-.28-.1-.4-.2l-.88-.95c-.24-.26-.28-.26-.54 0-.33.33-.49.35-.02.78l.7.73c.18.2.14.33-.17.63-.18.19-.3.12-.44-.05-.2-.25-.44-.49-.68-.73-.35-.32-.4-.32-.74.03-.05.05-.1.07-.14.1-.26.27-.26.32-.03.58l.98.96c.14.15.24.29.14.45-.09.17-.2.38-.42.42-.11.03-.18-.07-.28-.16-.6-.61-1.21-1.25-1.84-1.86-.19-.19-.19-.35 0-.52l1.47-1.45c.42-.43.86-.85 1.28-1.3.28-.28.33-.3.59-.02l1.6 1.62c.13.17.2.28.22.38z"/><path id="s4v4z" d="M622.42 7497.42v-1.93c0-.26.12-.38.35-.38.8 0 1.56.03 2.36-.07.2-.02.37.1.46.26.17.3-.02.61-.37.61-.44.03-.89 0-1.35 0-.24 0-.35.1-.33.33v.24c-.02.28.07.42.37.4.35-.03.7-.03 1.08-.03.32 0 .42.12.42.45 0 .35-.05.45-.4.45h-1.12c-.23 0-.33.1-.33.33-.04.8-.04.82.75.82.35 0 .7.02 1.07 0 .26-.02.38.07.35.35 0 .4-.04.5-.35.52-.49.02-.98 0-1.44 0h-.89c-.54 0-.58-.02-.58-.57-.05-.58-.05-1.2-.05-1.78z"/><path id="s4v4A" d="M615.95 7423.48l1.15-.9c.23-.16.42-.09.63.2.14.2.12.35-.12.5-.32.18-.6.44-.9.65-.31.23-.34.23-.06.54.17.19.24.47.52.59a51 51 0 0 1 1.33-1.04c.33-.23.7-.1.82.3.02.13-.03.22-.12.3-.7.56-1.45 1.05-2.15 1.61-.16.14-.35.1-.51-.11-.42-.62-.89-1.2-1.33-1.8-.33-.44-.68-.9-1-1.35-.15-.2-.2-.31.06-.5.68-.47 1.36-.96 1.99-1.48.2-.16.37-.14.51.05.21.26.21.5 0 .66-.37.23-.7.56-1.07.77-.26.17-.28.28-.12.52.1.19.23.3.37.5z"/><path id="s4v4B" d="M622.51 7490.34c.51.2 1.07.28 1.63.16.43-.1.68-.35.85-.75.11-.28 0-.4-.3-.42h-1.18c-.23 0-.4-.05-.37-.36.02-.33.05-.37.4-.4h1.17c.3 0 .37-.14.18-.37-.23-.33-.51-.6-.93-.61-.33-.03-.63 0-.96.04-.19.03-.42.12-.49-.19-.07-.25.07-.6.23-.7.75-.38 2.4 0 2.95.68.28.35.46.73.46 1.18 0 .54.1 1.08-.18 1.6-.42.75-1.03 1.22-1.92 1.24-.28 0-.56-.02-.84 0-.72 0-1.03-.4-.7-1.1z"/><path id="s4v4C" d="M645.67 7488.27l.02.14c-.05.7-.02.65.65.63.52-.02.75-.45.61-.94-.1-.35-.4-.5-.68-.59-.42-.11-.56 0-.58.45l-.02.3zm.11-1.56c.45.05.91-.07 1.38.17.47.23 1 .8.91 1.62a1.6 1.6 0 0 1-1.12 1.3c-.33.06-.63.23-.98.11-.19-.05-.26.1-.28.26-.02.24 0 .45 0 .68-.02.52-.05.54-.54.54-.56 0-.58 0-.58-.59v-3.66c0-.43 0-.43.44-.45.26.02.5.02.77.02z"/><path id="s4v4D" d="M628.93 7497.51c.07-.23.3-.35.47-.51.56-.57 1.12-1.11 1.66-1.67.11-.12.23-.22.37-.31.14.14.12.33.12.5v3.7c0 .5-.42.74-.84.5-.19-.11-.21-.3-.21-.5v-1.61c0-.12.02-.24-.07-.3-.14-.08-.24.04-.33.13-.49.43-.89.94-1.42 1.32-.35.16-.8.19-1 .63-.1-.58-.08-1.15-.08-1.71v-2.1c0-.23.1-.32.33-.32.19 0 .33.04.33.28v.73c0 .16 0 .3.18.35.03.14.03.3 0 .45-.3.09-.18.32-.18.51 0 .17.11.29.25.33.17.07.21-.12.28-.2.07-.06.1-.13.14-.2z"/><path id="s4v4E" d="M600.53 7448.81c-.35-.4-.8-.56-1.12-.84-.12-.1-.26-.17-.38-.26-.56-.4-.65-.68-.4-1.3.1-.23.29-.14.4-.02.26.24.54.43.82.64.72.51 1.45 1.08 2.17 1.62.17.12.3.26.42.42.42.54.47 1.15.07 1.7-.16.2-.65.23-.84.02-.07-.07-.07-.17-.02-.26.04-.1.11-.19.16-.28.17-.35-.07-.68-.47-.68-.09 0-.18 0-.28.04-.49.21-1.02.29-1.54.45-.5.16-1.02.24-1.56.38-.21-1 .14-1.25.89-1.27.28-.03.53-.05.81-.17.24-.14.52-.14.87-.19z"/><path id="s4v4F" d="M636.26 7489.06c.42-.3.42-.75.61-1.1.19-.33.3-.66.44-1.01.05-.12.1-.22.21-.22.3 0 .63-.07.96.07l-1.03 2.26c-.28.59-.49 1.2-.81 1.74a1.4 1.4 0 0 1-1.82.61c-.21-.1-.38-.7-.21-.84.14-.12.3-.12.46 0 .14.11.28.16.45.04.35-.2.4-.37.18-.8l-1.28-2.63c-.21-.4-.16-.47.3-.47h.4c.19 0 .3.07.37.26.24.7.59 1.32.77 2.1z"/><path id="s4v4G" d="M641.87 7497.09a2 2 0 0 1-.28.9c-.03.06-.05.16.02.2.24.14.5.05.76.05.07 0 .14-.1.1-.16-.17-.31-.15-.71-.6-1zm-1.61 2.7c-.1 0-.17.03-.24.03-.18-.03-.25-.12-.18-.31l.58-1.32c.44-.98.91-1.95 1.35-2.91.05-.1.07-.24.21-.24.17-.02.2.12.26.24a295.47 295.47 0 0 0 1.91 4.25.27.27 0 0 1-.14.29c-.32.14-.9-.07-1.02-.43-.12-.3-.28-.42-.59-.37-.14.02-.3.02-.44 0-.44-.05-.84 0-1.03.51-.14.29-.42.3-.67.26z"/><path id="s4v4H" d="M633.7 7417.04c.03-.38-.26-.54-.35-.8-.05-.16-.33-.19-.35-.05-.03.33-.29.71-.1.94.14.2.54-.02.8-.09zm-2.34 1.88c.19-.42.23-.84.33-1.27.23-1.1.6-2.18.77-3.31.02-.17.09-.3.23-.36.19-.07.23.15.33.26.86 1.18 1.65 2.42 2.56 3.58.2.23.12.37-.14.42-.18.02-.37.02-.56.07-.11.05-.3-.02-.35-.12-.23-.68-.74-.37-1.19-.35-.11 0-.23.12-.37.12-.28 0-.42.16-.51.42-.17.59-.38.68-1.1.54z"/><path id="s4v4I" d="M611.31 7430.07h.05c.77.63.67.56.23 1.36a2.8 2.8 0 0 1-1.7 1.34c-.35.1-.7.1-1.08-.1-.37-.18-.77-.32-1.07-.63a2.29 2.29 0 0 1-.75-1.95c.1-.94.68-1.57 1.4-2.11.14-.12.24.02.35.09.45.33.47.42.05.75-.6.47-.82 1.08-.63 1.81.23.87 1.5 1.48 2.29.75.35-.32.56-.72.74-1.17.05-.02.05-.1.12-.14z"/><path id="s4v4J" d="M640.8 7489.9c.1 0 .22.03.32 0 .14-.02.2-.16.14-.23-.17-.2-.19-.49-.28-.7-.07-.16-.28-.14-.33.03-.05.16-.1.3-.19.44-.2.35-.11.5.33.47zm-2.18 1.44c.05-.47.33-.82.51-1.2.47-1.08.98-2.13 1.47-3.2.05-.11.07-.25.26-.23.16 0 .21.1.26.24.58 1.31 1.16 2.63 1.77 3.92.05.1.07.17.1.26.07.2 0 .29-.2.29-.13 0-.25-.03-.39 0-.28.04-.49-.1-.54-.36-.04-.33-.25-.37-.5-.35-.22 0-.43.02-.62 0-.46-.05-.84.02-1 .54-.02.1-.07.17-.19.17-.35-.03-.63.04-.93-.08z"/><path id="s4v4K" d="M676.92 7435.78c-.2-.16-.4-.04-.58 0-.68.12-.72.03-.28.76.16.26.3.16.37.02.14-.28.38-.5.5-.78zm-1.54 2.33c.03-.1 0-.21.1-.3.28-.24.2-.47.02-.73-.14-.2-.26-.4-.37-.61-.17-.31-.35-.57-.8-.38-.23.1-.33-.14-.47-.3-.14-.17-.3-.36-.25-.57.1-.28.37-.19.58-.19 1.24 0 2.43-.35 3.67-.3.16 0 .28-.07.42-.12.09-.03.2-.1.3.05.07.11.1.23.02.37l-.65.94c-.63.97-1.35 1.86-1.91 2.9-.1.16-.33.16-.35.04-.07-.3-.33-.5-.3-.8z"/><path id="s4v4L" d="M663.71 7498.26c.52 0 .52 0 .3-.47-.04-.1-.04-.21-.09-.33-.04-.14-.1-.33-.25-.3-.14.02-.17.18-.2.3-.01.19-.15.28-.2.45-.07.21-.02.33.2.33.1.02.17.02.24.02zm-.04.75h-.24c-.37-.07-.63.03-.77.43-.14.33-.65.5-1 .35-.17-.07-.17-.16-.1-.3l.61-1.37c.42-.94.87-1.86 1.29-2.8.04-.12.07-.26.23-.28.16 0 .2.12.26.26.58 1.34 1.14 2.68 1.8 3.97.2.38.06.54-.4.54-.3 0-.59-.07-.68-.37-.12-.4-.35-.5-.7-.43-.1 0-.19-.02-.3 0 0-.02 0 0 0 0z"/><path id="s4v4M" d="M657.64 7489.91c.53 0 .55-.02.35-.52-.05-.11-.1-.23-.14-.37-.03-.1-.05-.19-.16-.19-.12 0-.17.07-.21.16-.1.22-.12.47-.28.66-.07.1 0 .26.18.26h.26zm2.26 1.41c-.3.17-.6.1-.88.07-.21 0-.3-.23-.35-.4-.1-.3-.28-.3-.52-.3h-1c-.23 0-.44.02-.5.33-.01.14-.13.33-.3.35-.25.05-.5.02-.76 0-.17-.02-.1-.19-.07-.28.07-.26.2-.47.32-.7.52-1.18 1.1-2.29 1.57-3.46a.33.33 0 0 1 .28-.24c.11 0 .16.07.18.16.7 1.49 1.36 2.97 2.03 4.47z"/><path id="s4v4N" d="M603.98 7470.19c.1 1.13-.74 1.97-1.65 2.21-1.5.4-2.6-.26-3.06-1.76-.05-.12-.1-.24-.14-.38-.17-.52.02-.82.53-.92.2-.04.35.03.3.26-.04.38.1.7.26 1.04.33.65 1.05.98 1.78.72 1.3-.47 1.21-1.71.63-2.53-.1-.12-.4-.17-.26-.43.12-.23.38-.2.59-.26.16-.02.25.07.35.2.49.53.67 1.14.67 1.85z"/><path id="s4v4O" d="M637.99 7418.03c-.52.02-.56-.02-.59-.56-.02-.54-.07-1.09-.07-1.63 0-.44-.11-.84-.14-1.27-.02-.2-.14-.28-.32-.28-.21.03-.42 0-.6.03-.34.02-.38-.17-.4-.4-.03-.31.04-.43.32-.47.1-.03.19 0 .28-.03.68-.05 1.38-.07 2.06-.12.18 0 .37 0 .56-.07.16-.07.32-.09.44.07.14.2.12.43.1.64-.03.1-.15.12-.24.14-.14.02-.26.02-.4.02-.67.03-.74.1-.65.78a16.46 16.46 0 0 1 .2 2.56c0 .54 0 .57-.55.6z"/><path id="s4v4P" d="M602.8 7465.29c0 .12 0 .21-.15.26-.14.05-.28.14-.42.16-.6.03-1.17.26-1.75.3-.42.03-.77.24-1.19.27-.23.02-.19.2-.14.35.1.21.14.42.16.66.03.35-.02.4-.42.42-.35.02-.44-.05-.49-.35-.04-.33-.11-.66-.18-.99-.17-.63-.21-1.3-.33-1.93-.05-.26.07-.44.33-.5.23-.04.4-.01.44.27.05.23.12.47.14.7.05.21.14.29.35.24.68-.12 1.35-.21 2.03-.38.37-.1.77-.1 1.15-.23.11-.05.18 0 .23.1.1.18.23.4.23.65z"/><path id="s4v4Q" d="M601.09 7441.54c-.21.21-.12.54-.3.8-.15.19-.08.33.16.42l2.8.95c.47.16.54.32.3.8-.2.42-.28.44-.65.3-.6-.23-1.22-.45-1.82-.66-.3-.12-.63-.21-.94-.33-.23-.1-.4-.02-.42.26-.02.19-.16.33-.2.52-.1.3-.29.37-.59.26-.23-.1-.3-.26-.21-.52.33-.99.68-1.98 1.03-2.96.07-.24.23-.33.4-.17.13.12.4.05.44.33z"/><path id="s4v4R" d="M612.47 7423.93c.59.56.59.61 0 1.13-.4.37-.4.35-.02.75l1.94 2.05c.25.28.25.35-.05.63-.5.47-.47.47-.91-.02-.6-.68-1.26-1.34-1.87-2-.18-.21-.32-.26-.53-.02-.12.14-.29.25-.43.37-.3.24-.65.17-.77-.19-.04-.16.03-.25.14-.37.66-.61 1.27-1.22 1.94-1.84.17-.16.3-.42.56-.49z"/><path id="s4v4S" d="M672.47 7433.76l-.35-.5c-.24-.32-.24-.4.07-.6.63-.5 1.3-.95 1.91-1.46.89-.73.75-.52.16-1.3-.25-.35-.23-.4.2-.7.2-.14.32-.1.53.19.54.72 1.1 1.48 1.66 2.2.02.05.07.08.11.12.21.29.19.43-.11.64-.24.16-.33.12-.56-.14-.61-.66-.38-.83-1.29-.14l-1.82 1.4c-.19.12-.35.2-.51.29z"/><path id="s4v4T" d="M598.38 7452.74v.21c-.02.61-.02.61.6.64.94.02 1.88.12 2.79.2.3.03.4.17.35.43-.03.14 0 .26-.05.4-.05.24-.19.4-.44.3-.94-.27-1.94-.09-2.9-.25-.35-.05-.4 0-.51.35-.07.19-.1.4-.1.61 0 .22-.07.33-.28.3-.23 0-.46.06-.53-.25a.58.58 0 0 1 0-.28c.18-.94.11-1.9.2-2.87.03-.28.12-.4.4-.4.45 0 .47 0 .47.47v.14z"/><path id="s4v4U" d="M646.05 7497.83v-1.29c0-.61-.03-.61-.61-.61h-.33c-.18 0-.35-.05-.3-.28.02-.21-.12-.47.23-.54.1-.03.19-.03.28-.03.94.05 1.87.05 2.78 0 .35-.02.44.07.44.4 0 .38-.02.43-.4.45h-.04c-.91.02-.91.02-.91.94v2.35c0 .5-.07.57-.54.57-.44 0-.58-.12-.58-.62-.02-.44-.02-.89-.02-1.34z"/><path id="s4v4V" d="M683.83 7451.6v.89c0 .1-.02.21.1.23.13.05.17-.07.24-.14.1-.11.1-.23.1-.37v-1.12c0-.17-.07-.33-.12-.5-.02-.09-.1-.16-.2-.14-.1.03-.12.1-.12.17v.98zm.89 1.72c.07.3-.03.5-.35.59-.35.1-.5.02-.54-.33-.02-.16-.02-.33-.05-.52-.04-.4-.14-.5-.49-.42-.79.19-1.63.16-2.42.33-.12.02-.21.05-.33.05-.5.07-.6-.03-.68-.57-.04-.47.03-.54.5-.59.9-.09 1.79-.2 2.7-.33.47-.07.51-.14.47-.63 0-.1-.03-.19-.05-.28-.07-.45.07-.59.5-.59.15 0 .25.05.3.19.04.14.09.28.11.42.12.94.12 1.84.33 2.68z"/><path id="s4v4W" d="M628.44 7496.61c-.21-.04-.19-.19-.19-.35v-.73c0-.23-.14-.26-.33-.28-.23 0-.32.1-.32.33v2.09c0 .56-.05 1.13.07 1.72.18-.45.65-.47 1-.64-.23.38-.6.66-.91.97-.16.16-.3.09-.35-.12-.02-.1 0-.19 0-.28v-3.65c0-.54.44-.8.93-.54.14.07.17.19.17.33-.05.35 0 .75-.07 1.15z"/><path id="s4v4X" d="M629.59 7494.8c-.47 0-.94-.35-1.05-.8-.05-.16 0-.3.14-.37s.25 0 .32.12c.17.2.26.49.59.51.35.03.44-.28.58-.5.1-.13.21-.2.37-.13.2.1.1.23.05.37-.14.55-.47.8-1 .8z"/><path id="s4v4Y" d="M635.02 7467.95c.14.59.1 1.18.03 1.76-.05.36-.07.7 0 1.06.07.45.11.9-.03 1.32-.04-.07-.11-.12-.11-.19-.14-1.25-.17-2.5.04-3.74 0-.07.05-.14.07-.21z"/><path id="s4v4Z" d="M635.74 7463.62c.07.61-.04 1.18-.28 1.74a.3.3 0 0 1-.16.21c0-.07-.05-.14-.02-.21.11-.45.2-.9.28-1.36 0-.14.04-.29.18-.38z"/><path id="s4v4aa" d="M635.28 7473.57c.21.1.21.33.28.52.17.44.3.91.59 1.31.07.1.09.22.07.31-.42-.33-.52-.85-.7-1.3-.12-.25-.33-.51-.24-.84z"/><path id="s4v4ab" d="M636.89 7459.72c.1.45-.16.82-.33 1.2-.11.26.03.63-.32.8-.05-.4.18-.73.3-1.1.07-.29.1-.64.35-.9z"/><path id="s4v4ac" d="M636.19 7461.93c.02.24.02.47-.1.7-.09.17-.11.36-.11.55 0 .14-.05.25-.21.25.02-.54.12-1.05.42-1.5z"/><path id="s4v4ad" d="M635.24 7466.02c.16.47 0 .92-.19 1.34-.07-.45-.02-.9.19-1.34z"/><path id="s4v4ae" d="M628.94 7497.5c-.05.08-.07.15-.12.2-.1.09-.12.28-.28.2-.14-.04-.26-.16-.26-.32 0-.2-.11-.43.19-.52l.02.16c.03.4.03.4.45.29z"/><path id="s4v4af" d="M635.04 7472.56c.21.24.35.47.2.78-.24-.22-.24-.5-.2-.78z"/><path id="s4v4ag" d="M636.24 7475.83c.33.05.37.3.42.59a.7.7 0 0 1-.42-.59z"/><path id="s4v4ah" d="M636.68 7476.51c.19 0 .21.14.21.3-.11-.07-.23-.14-.2-.3z"/><path id="s4v4ai" d="M650.36 7416.6c.05-.12.12-.22.23-.12.12.1.05.19-.02.28a.82.82 0 0 1-.21-.16z"/><path id="s4v4aj" d="M679.05 7475.78c-.14-.05-.2-.19-.1-.28.17-.14.22.05.24.16-.04.05-.1.07-.14.12z"/><path id="s4v4ak" d="M683.83 7451.6v-.96c0-.07.03-.14.12-.16.12-.03.16.02.2.14.06.16.13.3.13.5v1.12c0 .14 0 .26-.1.38-.07.09-.14.18-.25.14-.12-.05-.1-.14-.1-.24v-.92z"/></defs><g><g transform="translate(-597 -7413)"><g><use fill="#2a2984" xlink:href="#s4v4a"/></g><g><use fill="#3c3888" xlink:href="#s4v4b"/></g><g><use fill="#3c3888" xlink:href="#s4v4c"/></g><g><use fill="#3c3888" xlink:href="#s4v4d"/></g><g><use fill="#3c3888" xlink:href="#s4v4e"/></g><g><use fill="#3c3888" xlink:href="#s4v4f"/></g><g><use fill="#3c3888" xlink:href="#s4v4g"/></g><g><use fill="#3c3888" xlink:href="#s4v4h"/></g><g><use fill="#3c3888" xlink:href="#s4v4i"/></g><g><use fill="#3c3888" xlink:href="#s4v4j"/></g><g><use fill="#3c3888" xlink:href="#s4v4k"/></g><g><use fill="#3c3888" xlink:href="#s4v4l"/></g><g><use fill="#3c3888" xlink:href="#s4v4m"/></g><g><use fill="#3c3888" xlink:href="#s4v4n"/></g><g><use fill="#3c3888" xlink:href="#s4v4o"/></g><g><use fill="#3c3888" xlink:href="#s4v4p"/></g><g><use fill="#3c3888" xlink:href="#s4v4q"/></g><g><use fill="#3c3888" xlink:href="#s4v4r"/></g><g><use fill="#3c3888" xlink:href="#s4v4s"/></g><g><use fill="#3c3888" xlink:href="#s4v4t"/></g><g><use fill="#3c3888" xlink:href="#s4v4u"/></g><g><use fill="#3c3888" xlink:href="#s4v4v"/></g><g><use fill="#3c3888" xlink:href="#s4v4w"/></g><g><use fill="#3c3888" xlink:href="#s4v4x"/></g><g><use fill="#3c3888" xlink:href="#s4v4y"/></g><g><use fill="#3c3888" xlink:href="#s4v4z"/></g><g><use fill="#3c3888" xlink:href="#s4v4A"/></g><g><use fill="#3c3888" xlink:href="#s4v4B"/></g><g><use fill="#3c3888" xlink:href="#s4v4C"/></g><g><use fill="#2a2984" xlink:href="#s4v4D"/></g><g><use fill="#3c3888" xlink:href="#s4v4E"/></g><g><use fill="#3c3888" xlink:href="#s4v4F"/></g><g><use fill="#3c3888" xlink:href="#s4v4G"/></g><g><use fill="#3c3888" xlink:href="#s4v4H"/></g><g><use fill="#3c3888" xlink:href="#s4v4I"/></g><g><use fill="#3c3888" xlink:href="#s4v4J"/></g><g><use fill="#3c3888" xlink:href="#s4v4K"/></g><g><use fill="#3c3888" xlink:href="#s4v4L"/></g><g><use fill="#3c3888" xlink:href="#s4v4M"/></g><g><use fill="#3c3888" xlink:href="#s4v4N"/></g><g><use fill="#3c3888" xlink:href="#s4v4O"/></g><g><use fill="#3c3888" xlink:href="#s4v4P"/></g><g><use fill="#3c3888" xlink:href="#s4v4Q"/></g><g><use fill="#3c3888" xlink:href="#s4v4R"/></g><g><use fill="#3c3888" xlink:href="#s4v4S"/></g><g><use fill="#3c3888" xlink:href="#s4v4T"/></g><g><use fill="#3c3888" xlink:href="#s4v4U"/></g><g><use fill="#3c3888" xlink:href="#s4v4V"/></g><g><use fill="#3c3888" xlink:href="#s4v4W"/></g><g><use fill="#3c3888" xlink:href="#s4v4X"/></g><g><use fill="#3c3888" xlink:href="#s4v4Y"/></g><g><use fill="#3c3888" xlink:href="#s4v4Z"/></g><g><use fill="#3c3888" xlink:href="#s4v4aa"/></g><g><use fill="#3c3888" xlink:href="#s4v4ab"/></g><g><use fill="#3c3888" xlink:href="#s4v4ac"/></g><g><use fill="#3c3888" xlink:href="#s4v4ad"/></g><g><use fill="#3c3888" xlink:href="#s4v4ae"/></g><g><use fill="#3c3888" xlink:href="#s4v4af"/></g><g><use fill="#3c3888" xlink:href="#s4v4ag"/></g><g><use fill="#3c3888" xlink:href="#s4v4ah"/></g><g><use fill="#fefefe" xlink:href="#s4v4ai"/></g><g><use fill="#fefefe" xlink:href="#s4v4aj"/></g><g><use fill="#2a2984" xlink:href="#s4v4ak"/></g></g></g></svg>