<svg xmlns="http://www.w3.org/2000/svg" xmlns:xlink="http://www.w3.org/1999/xlink" width="20" height="20" viewBox="0 0 20 20"><defs><path id="4wepa" d="M975 604a10 10 0 1 1 20 0 10 10 0 0 1-20 0z"/><path id="4wepc" d="M987.58 607.71c.3.3.3.77 0 1.07-.31.3-.8.3-1.11 0l-1.47-1.42-1.47 1.42a.8.8 0 0 1-1.1 0 .74.74 0 0 1 0-1.07l1.49-1.44a5.12 5.12 0 0 1-1.55-.62.74.74 0 0 1-.25-1.05.8.8 0 0 1 1.08-.23c1.1.66 2.5.66 3.6 0a.8.8 0 0 1 1.08.23c.23.36.12.82-.25 1.05-.48.29-1 .5-1.55.62zm-5.26-6.13c0-1.42 1.2-2.58 2.67-2.58a2.63 2.63 0 0 1 2.68 2.58c0 1.42-1.2 2.58-2.68 2.58a2.63 2.63 0 0 1-2.67-2.58zm2.67-1.07c-.6 0-1.1.48-1.1 1.07 0 .59.5 1.07 1.1 1.07.61 0 1.11-.48 1.11-1.07 0-.59-.5-1.07-1.1-1.07z"/><clipPath id="4wepb"><use fill="#fff" xlink:href="#4wepa"/></clipPath></defs><g><g transform="translate(-975 -594)"><g opacity=".5"><use fill="#fff" fill-opacity="0" stroke="#000" stroke-miterlimit="50" stroke-width="2" clip-path="url(&quot;#4wepb&quot;)" xlink:href="#4wepa"/></g><g opacity=".5"><use xlink:href="#4wepc"/></g></g></g></svg>