<svg xmlns="http://www.w3.org/2000/svg" xmlns:xlink="http://www.w3.org/1999/xlink" width="16" height="20" viewBox="0 0 16 20"><defs><path id="6ya7a" d="M1174.99 29.13c.01-2.13-2.19-3.39-4.32-4.3-2.12-.92-2.8-1.69-2.8-3.34 0-.99.65-.66.93-2.48.12-.75.7-.01.8-1.73 0-.68-.3-.85-.3-.85s.15-1.01.21-1.8c.07-.81-.4-2.55-2.3-3.09-.33-.34-.56-.88.47-1.42-2.24-.1-2.76 1.06-3.95 1.93a3.14 3.14 0 0 0-1.24 2.59c.06.78.22 1.79.22 1.79s-.32.17-.32.85c.11 1.72.69.98.8 1.73.3 1.82.94 1.5.94 2.48 0 1.65-.21 2.21-2.34 3.13-2.13.91-2.79 2.38-2.78 4.51l-.01.87h16l-.01-.87z"/></defs><g><g transform="translate(-1159 -10)"><use fill="#222" xlink:href="#6ya7a"/></g></g></svg>