<svg xmlns="http://www.w3.org/2000/svg" xmlns:xlink="http://www.w3.org/1999/xlink" width="20" height="20" viewBox="0 0 20 20"><defs><path id="5w9ja" d="M945 604a10 10 0 1 1 20 0 10 10 0 0 1-20 0z"/><path id="5w9jc" d="M955.53 606.95s.19-.02.29-.13c.09-.1.08-.27.08-.27s0-.84.39-.96c.4-.13.9.8 1.43 1.17.4.27.7.2.7.2l1.43-.01s.74-.05.4-.62c-.04-.05-.21-.43-1.07-1.2-.9-.82-.77-.69.3-2.1.66-.85.92-1.38.84-1.6-.08-.21-.56-.16-.56-.16l-1.6.01s-.12-.01-.21.04a.44.44 0 0 0-.14.17s-.26.66-.6 1.23c-.7 1.19-1 1.25-1.11 1.18-.27-.18-.2-.7-.2-1.07 0-1.15.17-1.63-.35-1.76-.18-.04-.3-.06-.75-.07-.57 0-1.06 0-1.33.13-.18.1-.33.29-.24.3.1.01.35.06.47.23.17.22.16.72.16.72s.1 1.35-.22 1.52c-.21.12-.51-.12-1.15-1.2-.32-.55-.57-1.16-.57-1.16s-.05-.12-.13-.18c-.1-.07-.25-.1-.25-.1l-1.52.01s-.23.01-.32.1c-.07.1 0 .27 0 .27s1.2 2.74 2.54 4.13c1.24 1.26 2.65 1.18 2.65 1.18z"/><clipPath id="5w9jb"><use fill="#fff" xlink:href="#5w9ja"/></clipPath></defs><g><g transform="translate(-945 -594)"><g opacity=".5"><use fill="#fff" fill-opacity="0" stroke="#000" stroke-miterlimit="50" stroke-width="2" clip-path="url(&quot;#5w9jb&quot;)" xlink:href="#5w9ja"/></g><g opacity=".5"><use xlink:href="#5w9jc"/></g></g></g></svg>