<svg xmlns="http://www.w3.org/2000/svg" xmlns:xlink="http://www.w3.org/1999/xlink" width="16" height="10" viewBox="0 0 16 10"><defs><path id="4txva" d="M1056.78 25.42s.3-.03.44-.18.13-.42.13-.42-.02-1.26.58-1.44c.59-.19 1.34 1.22 2.14 1.75.6.41 1.06.32 1.06.32l2.14-.03s1.12-.07.59-.93c-.05-.07-.31-.64-1.6-1.8-1.33-1.22-1.15-1.03.46-3.14.98-1.28 1.38-2.07 1.25-2.4-.11-.32-.83-.24-.83-.24l-2.41.02s-.18-.03-.31.05-.21.25-.21.25-.38 1-.9 1.84c-1.06 1.79-1.5 1.88-1.67 1.77-.4-.26-.3-1.04-.3-1.59 0-1.73.26-2.45-.52-2.64-.26-.06-.46-.1-1.13-.1-.85-.02-1.58 0-2 .2-.27.12-.48.42-.35.43.16.02.52.1.71.35.25.33.24 1.07.24 1.07s.14 2.04-.33 2.3c-.33.17-.77-.19-1.73-1.8-.49-.84-.85-1.75-.85-1.75s-.08-.18-.2-.27c-.16-.1-.37-.14-.37-.14l-2.29.01s-.34.01-.47.16c-.11.13 0 .4 0 .4s1.78 4.1 3.81 6.18c1.86 1.9 3.97 1.77 3.97 1.77z"/></defs><g><g transform="translate(-1048 -16)"><use fill="#222" xlink:href="#4txva"/></g></g></svg>